<svg xmlns="http://www.w3.org/2000/svg" viewBox="0 0 500 500"><g id="freepik--background-complete--inject-37"><rect y="382.4" width="500" height="0.25" style="fill:#ebebeb"></rect><rect x="379.33" y="398.49" width="70.57" height="0.25" style="fill:#ebebeb"></rect><rect x="341" y="401.21" width="15.03" height="0.25" style="fill:#ebebeb"></rect><rect x="396.59" y="389.21" width="13.16" height="0.25" style="fill:#ebebeb"></rect><rect x="52.46" y="390.89" width="38.83" height="0.25" style="fill:#ebebeb"></rect><rect x="100.19" y="390.89" width="10.69" height="0.25" style="fill:#ebebeb"></rect><rect x="189.58" y="395.11" width="54.56" height="0.25" style="fill:#ebebeb"></rect><path d="M237,337.8H43.91a5.71,5.71,0,0,1-5.7-5.71V60.66A5.71,5.71,0,0,1,43.91,55H237a5.71,5.71,0,0,1,5.71,5.71V332.09A5.71,5.71,0,0,1,237,337.8ZM43.91,55.2a5.46,5.46,0,0,0-5.45,5.46V332.09a5.46,5.46,0,0,0,5.45,5.46H237a5.47,5.47,0,0,0,5.46-5.46V60.66A5.47,5.47,0,0,0,237,55.2Z" style="fill:#ebebeb"></path><path d="M453.31,337.8H260.21a5.72,5.72,0,0,1-5.71-5.71V60.66A5.72,5.72,0,0,1,260.21,55h193.1A5.71,5.71,0,0,1,459,60.66V332.09A5.71,5.71,0,0,1,453.31,337.8ZM260.21,55.2a5.47,5.47,0,0,0-5.46,5.46V332.09a5.47,5.47,0,0,0,5.46,5.46h193.1a5.47,5.47,0,0,0,5.46-5.46V60.66a5.47,5.47,0,0,0-5.46-5.46Z" style="fill:#ebebeb"></path><path d="M71.76,218.81s.54,12,21.27,12,21.28-12,21.28-12Z" style="fill:#f0f0f0"></path><rect x="147.37" y="239.58" width="25.81" height="142.82" style="fill:#e6e6e6"></rect><polygon points="168.28 382.4 173.19 382.4 173.19 372.12 163.14 372.12 168.28 382.4" style="fill:#f0f0f0"></polygon><rect x="50.9" y="239.58" width="25.81" height="142.82" style="fill:#e6e6e6"></rect><rect x="72.44" y="239.58" width="100.75" height="136.52" style="fill:#f0f0f0"></rect><rect x="88.23" y="282.1" width="117.38" height="44.93" transform="translate(-157.64 451.48) rotate(-90)" style="fill:#e6e6e6"></rect><rect x="40.01" y="282.09" width="117.38" height="44.93" transform="translate(-205.85 403.26) rotate(-90)" style="fill:#e6e6e6"></rect><path d="M103.15,248.74H94.26a16.85,16.85,0,0,1-10.21-3.23h29.3A16.8,16.8,0,0,1,103.15,248.74Z" style="fill:#f0f0f0"></path><path d="M151.82,248.74h-8.89a16.85,16.85,0,0,1-10.21-3.23H162A16.8,16.8,0,0,1,151.82,248.74Z" style="fill:#f0f0f0"></path><polygon points="77.34 382.4 72.44 382.4 72.44 372.12 82.48 372.12 77.34 382.4" style="fill:#f0f0f0"></polygon><path d="M71.76,227.53s.54,12,21.27,12,21.28-12,21.28-12Z" style="fill:#e6e6e6"></path><path d="M136.17,227s.33,7.32,12.93,7.32S162,227,162,227Z" style="fill:#f5f5f5"></path><path d="M136.17,232.26s.33,7.31,12.93,7.31S162,232.26,162,232.26Z" style="fill:#e6e6e6"></path><rect x="63.11" y="74.5" width="86.83" height="117.87" style="fill:#e6e6e6"></rect><rect x="64.88" y="74.5" width="88.85" height="117.87" style="fill:#f0f0f0"></rect><rect x="57.01" y="94.33" width="104.59" height="78.22" transform="translate(242.74 24.13) rotate(90)" style="fill:#fafafa"></rect><rect x="95.78" y="133.1" width="104.59" height="0.68" transform="translate(281.51 -14.64) rotate(90)" style="fill:#e6e6e6"></rect><path d="M114.21,158.27H102.05a6.94,6.94,0,0,1-6.84-5.93,35.72,35.72,0,0,0-7.11-16.48,25.14,25.14,0,0,1,20.72-40.37,25.13,25.13,0,0,1,19.25,40.4A35.66,35.66,0,0,0,121,152.4,6.87,6.87,0,0,1,114.21,158.27Zm-6.12-61.48a23.83,23.83,0,0,0-19,38.27,37,37,0,0,1,7.37,17.09,5.62,5.62,0,0,0,5.54,4.81h12.16a5.56,5.56,0,0,0,5.47-4.75A36.93,36.93,0,0,1,127,135.09,23.83,23.83,0,0,0,108.78,96.8Z" style="fill:#e6e6e6"></path><path d="M101.6,170.74h13a4.43,4.43,0,0,0,4.41-4.42h0a4.42,4.42,0,0,0-4.41-4.41h-13a4.43,4.43,0,0,0-4.42,4.41h0A4.43,4.43,0,0,0,101.6,170.74Z" style="fill:#e6e6e6"></path><path d="M108.1,129a5.66,5.66,0,1,1,5.65-5.65A5.66,5.66,0,0,1,108.1,129Zm0-10a4.34,4.34,0,1,0,4.34,4.34A4.34,4.34,0,0,0,108.1,119Z" style="fill:#e6e6e6"></path><path d="M101.52,129a5.66,5.66,0,1,1,5.66-5.65A5.65,5.65,0,0,1,101.52,129Zm0-10a4.34,4.34,0,1,0,4.34,4.34A4.34,4.34,0,0,0,101.52,119Z" style="fill:#e6e6e6"></path><path d="M114.67,129a5.66,5.66,0,1,1,5.66-5.65A5.66,5.66,0,0,1,114.67,129Zm0-10a4.34,4.34,0,1,0,4.34,4.34A4.34,4.34,0,0,0,114.67,119Z" style="fill:#e6e6e6"></path></g><g id="freepik--Shadow--inject-37"><ellipse id="freepik--path--inject-37" cx="250" cy="416.24" rx="193.89" ry="11.32" style="fill:#f5f5f5"></ellipse></g><g id="freepik--Labirynth--inject-37"><polygon points="425.41 334.13 190.17 334.13 197.88 214.68 210.07 214.68 203.15 321.94 352.32 321.94 352.87 313.41 273.45 313.41 274.24 301.22 394.63 301.22 401.33 197.28 392.8 197.28 386.64 292.69 266.26 292.69 264.92 313.41 212.23 313.41 224.73 119.62 375.26 119.62 375.81 111.08 216.75 111.08 210.62 206.15 198.43 206.15 201.9 152.32 193.37 152.32 181.09 342.67 433.39 342.67 434.19 330.27 425.66 330.27 425.41 334.13" style="fill:#407BFF"></polygon><polygon points="197.37 90.36 194.64 132.55 203.18 132.55 205.35 98.9 392.11 98.9 390.77 119.62 418.53 119.62 415.07 173.25 402.88 173.25 405.55 131.81 290.79 131.81 290.24 140.34 350.43 140.34 349.64 152.53 255.52 152.53 247.54 276.24 247.26 280.5 246.48 292.69 234.29 292.69 240.2 201.07 231.67 201.07 225.21 301.22 254.46 301.22 255.79 280.5 330.49 280.5 331.04 271.97 290.88 271.97 291.67 259.78 312.59 259.78 313.14 251.25 278.4 251.25 278.82 244.68 270.29 244.68 269.32 259.78 283.14 259.78 282.35 271.97 256.35 271.97 263.5 161.06 374.41 161.06 370.15 227.08 378.69 227.08 383.5 152.53 358.18 152.53 358.96 140.34 396.47 140.34 393.8 181.78 414.52 181.78 411.25 232.49 419.78 232.49 427.61 111.08 399.86 111.08 400.64 98.9 440.58 98.9 430.97 248 410.25 248 406.03 313.41 372.64 313.41 372.09 321.94 414.01 321.94 418.23 256.53 430.42 256.53 426.94 310.5 435.47 310.5 449.67 90.36 197.37 90.36" style="fill:#407BFF"></polygon><polygon points="241.47 181.3 244.11 140.34 270.45 140.34 271 131.81 236.13 131.81 232.94 181.3 241.47 181.3" style="fill:#407BFF"></polygon><polygon points="345.99 280.5 375.24 280.5 377.41 246.85 368.88 246.85 367.26 271.97 355.07 271.97 355.86 259.78 356.13 255.52 361.44 173.25 274.9 173.25 271.57 224.91 280.1 224.91 282.88 181.78 352.36 181.78 347.88 251.25 332.91 251.25 332.36 259.78 347.32 259.78 345.99 280.5" style="fill:#407BFF"></polygon><polygon points="321.59 230.53 321.04 239.06 336.48 239.06 339.39 193.96 294.29 193.96 291.38 239.06 301.94 239.06 302.49 230.53 300.46 230.53 302.27 202.49 330.3 202.49 328.5 230.53 321.59 230.53" style="fill:#407BFF"></polygon><g style="opacity:0.6000000000000001"><polygon points="425.41 334.13 190.17 334.13 197.88 214.68 210.07 214.68 203.15 321.94 352.32 321.94 352.87 313.41 273.45 313.41 274.24 301.22 394.63 301.22 401.33 197.28 392.8 197.28 386.64 292.69 266.26 292.69 264.92 313.41 212.23 313.41 224.73 119.62 375.26 119.62 375.81 111.08 216.75 111.08 210.62 206.15 198.43 206.15 201.9 152.32 193.37 152.32 181.09 342.67 433.39 342.67 434.19 330.27 425.66 330.27 425.41 334.13" style="fill:#fff"></polygon><polygon points="197.37 90.36 194.64 132.55 203.18 132.55 205.35 98.9 392.11 98.9 390.77 119.62 418.53 119.62 415.07 173.25 402.88 173.25 405.55 131.81 290.79 131.81 290.24 140.34 350.43 140.34 349.64 152.53 255.52 152.53 247.54 276.24 247.26 280.5 246.48 292.69 234.29 292.69 240.2 201.07 231.67 201.07 225.21 301.22 254.46 301.22 255.79 280.5 330.49 280.5 331.04 271.97 290.88 271.97 291.67 259.78 312.59 259.78 313.14 251.25 278.4 251.25 278.82 244.68 270.29 244.68 269.32 259.78 283.14 259.78 282.35 271.97 256.35 271.97 263.5 161.06 374.41 161.06 370.15 227.08 378.69 227.08 383.5 152.53 358.18 152.53 358.96 140.34 396.47 140.34 393.8 181.78 414.52 181.78 411.25 232.49 419.78 232.49 427.61 111.08 399.86 111.08 400.64 98.9 440.58 98.9 430.97 248 410.25 248 406.03 313.41 372.64 313.41 372.09 321.94 414.01 321.94 418.23 256.53 430.42 256.53 426.94 310.5 435.47 310.5 449.67 90.36 197.37 90.36" style="fill:#fff"></polygon><polygon points="241.47 181.3 244.11 140.34 270.45 140.34 271 131.81 236.13 131.81 232.94 181.3 241.47 181.3" style="fill:#fff"></polygon><polygon points="345.99 280.5 375.24 280.5 377.41 246.85 368.88 246.85 367.26 271.97 355.07 271.97 355.86 259.78 356.13 255.52 361.44 173.25 274.9 173.25 271.57 224.91 280.1 224.91 282.88 181.78 352.36 181.78 347.88 251.25 332.91 251.25 332.36 259.78 347.32 259.78 345.99 280.5" style="fill:#fff"></polygon><polygon points="321.59 230.53 321.04 239.06 336.48 239.06 339.39 193.96 294.29 193.96 291.38 239.06 301.94 239.06 302.49 230.53 300.46 230.53 302.27 202.49 330.3 202.49 328.5 230.53 321.59 230.53" style="fill:#fff"></polygon></g><polygon points="421.09 329.01 360.78 329.01 362.25 306.35 399.42 306.35 407.03 188.36 388.25 188.36 385.05 237.93 362.39 237.93 366.8 169.54 270.49 169.54 266.34 233.83 286.11 233.83 285.44 244.19 324.45 244.19 323.12 264.91 343.36 264.91 341.84 288.58 261.86 288.58 260.59 308.29 217.69 308.29 225.3 190.22 246.02 190.22 248.91 145.46 279.99 145.46 281.33 124.74 383.86 124.74 385.07 105.96 211.96 105.96 209.54 143.4 186.08 143.4 186.08 141.47 207.73 141.47 210.14 104.02 387.13 104.02 385.67 126.68 283.14 126.68 281.8 147.4 250.72 147.4 247.84 192.15 227.12 192.15 219.75 306.35 258.78 306.35 260.05 286.64 340.02 286.64 341.3 266.85 321.05 266.85 322.39 246.13 283.38 246.13 284.05 235.76 264.28 235.76 268.68 167.6 368.87 167.6 364.45 236 383.24 236 386.43 186.43 409.09 186.43 401.23 308.29 364.06 308.29 362.85 327.07 419.28 327.07 419.77 319.42 442.75 319.42 442.75 321.35 421.59 321.35 421.09 329.01" style="fill:#407BFF"></polygon><polygon points="316.87 222.38 312.47 222.38 312.89 215.83 318.37 215.83 318.58 212.65 312.02 212.65 311.96 213.58 307.56 213.58 307.9 208.25 323.27 208.25 322.49 220.24 317.01 220.24 316.87 222.38" style="fill:#407BFF"></polygon><polygon points="316.56 227.3 312.15 227.3 312.37 223.94 316.77 223.94 316.56 227.3" style="fill:#407BFF"></polygon></g></svg>