<svg xmlns="http://www.w3.org/2000/svg" viewBox="0 0 500 500"><g id="freepik--background-complete--inject-44"><rect y="382.4" width="500" height="0.25" style="fill:#ebebeb"></rect><rect x="78.54" y="390.79" width="33.12" height="0.25" style="fill:#ebebeb"></rect><rect x="133.33" y="398" width="30.17" height="0.25" style="fill:#ebebeb"></rect><rect x="56.85" y="400.07" width="38.25" height="0.25" style="fill:#ebebeb"></rect><rect x="434" y="399.53" width="15.9" height="0.25" style="fill:#ebebeb"></rect><rect x="391.47" y="399.53" width="39.32" height="0.25" style="fill:#ebebeb"></rect><rect x="250" y="390.66" width="30.33" height="0.25" style="fill:#ebebeb"></rect><rect x="284.67" y="390.66" width="72.1" height="0.25" style="fill:#ebebeb"></rect><path d="M237,337.8H43.91a5.71,5.71,0,0,1-5.7-5.71V60.66A5.71,5.71,0,0,1,43.91,55H237a5.71,5.71,0,0,1,5.71,5.71V332.09A5.71,5.71,0,0,1,237,337.8ZM43.91,55.2a5.46,5.46,0,0,0-5.45,5.46V332.09a5.46,5.46,0,0,0,5.45,5.46H237a5.47,5.47,0,0,0,5.46-5.46V60.66A5.47,5.47,0,0,0,237,55.2Z" style="fill:#ebebeb"></path><path d="M453.31,337.8H260.21a5.72,5.72,0,0,1-5.71-5.71V60.66A5.72,5.72,0,0,1,260.21,55h193.1A5.71,5.71,0,0,1,459,60.66V332.09A5.71,5.71,0,0,1,453.31,337.8ZM260.21,55.2a5.47,5.47,0,0,0-5.46,5.46V332.09a5.47,5.47,0,0,0,5.46,5.46h193.1a5.47,5.47,0,0,0,5.46-5.46V60.66a5.47,5.47,0,0,0-5.46-5.46Z" style="fill:#ebebeb"></path><path d="M175.67,382.4h-4a90.33,90.33,0,0,1,1.51-12.94c3.18-19.91,8-50-16.88-84.29-14.72-20.29-29.94-50.25-18.82-77.71C147.7,182.22,178.15,165,228,156.24,299.36,143.71,342,122.51,351.24,95c5.72-17-1.47-36.52-21.37-57.93l2.93-2.72c21,22.56,28.45,43.4,22.23,61.92-9.75,29-53.44,51.15-126.35,64-48.39,8.5-77.83,24.91-87.49,48.78-10.43,25.76,4.22,54.39,18.35,73.87,25.85,35.64,20.68,67.95,17.59,87.26A87.25,87.25,0,0,0,175.67,382.4Z" style="fill:#f5f5f5"></path><path d="M144.45,198.71c11.39-17.6,11.28-38.72,1-54.35C119.89,167.19,144.45,198.71,144.45,198.71Z" style="fill:#f5f5f5"></path><path d="M226.91,158.61c24.56-9.86,50.7-4.62,67.56,12C260,196.65,226.91,158.61,226.91,158.61Z" style="fill:#f5f5f5"></path><path d="M397.77,66.76c-8.82,18.91-26.69,30-45.33,29.53C358.21,62.71,397.77,66.76,397.77,66.76Z" style="fill:#f5f5f5"></path><path d="M166.49,297.73c-9.58-12.31-10.85-28-4.2-40.23C182.67,272.78,166.49,297.73,166.49,297.73Z" style="fill:#f5f5f5"></path><path d="M341.41,47.24c-15.6.22-28.88-8.2-34.65-20.89C331.24,19.29,341.41,47.24,341.41,47.24Z" style="fill:#f5f5f5"></path><path d="M415.89,382.4h-2.68c0-9.63-8.15-15.28-16.78-21.26C385,353.2,372,344.19,381.67,324.33c4.68-9.59,12.36-17,19.79-24.17,18.52-17.88,34.52-33.32.2-76.22-31.05-38.82-43.25-69.36-35.28-88.32,5.09-12.1,18.11-19.28,38.7-21.34l.26,2.68c-19.53,2-31.8,8.58-36.48,19.7-7.57,18,4.5,47.6,34.9,85.6,35.85,44.82,18.22,61.83-.44,79.84-7.26,7-14.77,14.25-19.23,23.41-8.67,17.79,2.28,25.38,13.87,33.42C406.78,365,415.89,371.37,415.89,382.4Z" style="fill:#f5f5f5"></path><path d="M419,282.58c2.08-13.93,11.51-24.52,23.65-27.81C445.37,277.6,419,282.58,419,282.58Z" style="fill:#f5f5f5"></path><path d="M403.25,223.93c-8-15.87-23.5-24.83-39.35-24C369.67,228.4,403.25,223.93,403.25,223.93Z" style="fill:#f5f5f5"></path><path d="M357.93,101.79c-3.95,13.45.14,27,9.73,35C379.66,117.32,357.93,101.79,357.93,101.79Z" style="fill:#f5f5f5"></path><path d="M381.83,327.51c5.61-8.85,5.46-19.4.23-27.17C369.42,311.87,381.83,327.51,381.83,327.51Z" style="fill:#f5f5f5"></path><path d="M395,117c7.76,7,18.19,8.69,26.73,4.85C412.53,107.41,395,117,395,117Z" style="fill:#f5f5f5"></path><path d="M240.43,382.4h-2.89c0-10.37-8.78-16.46-18.08-22.91-12.34-8.55-26.32-18.25-15.89-39.65,5-10.32,13.3-18.31,21.3-26,20-19.26,37.2-35.9.23-82.11-33.46-41.82-46.6-74.72-38-95.15,5.48-13,19.51-20.76,41.69-23l.28,2.88c-21,2.1-34.26,9.25-39.3,21.22-8.15,19.39,4.85,51.28,37.6,92.22,38.62,48.28,19.63,66.6-.48,86-7.82,7.55-15.9,15.35-20.71,25.22-9.34,19.17,2.45,27.35,14.94,36C230.61,363.7,240.43,370.51,240.43,382.4Z" style="fill:#f5f5f5"></path><path d="M243.78,274.87c2.23-15,12.39-26.41,25.47-30C272.18,269.5,243.78,274.87,243.78,274.87Z" style="fill:#f5f5f5"></path><path d="M226.81,211.69c-8.62-17.1-25.32-26.75-42.4-25.82C190.64,216.5,226.81,211.69,226.81,211.69Z" style="fill:#f5f5f5"></path><path d="M178,80.11c-4.25,14.49.15,29,10.49,37.72C201.4,96.84,178,80.11,178,80.11Z" style="fill:#f5f5f5"></path><path d="M203.74,323.27c6-9.53,5.87-20.9.24-29.27C190.36,306.42,203.74,323.27,203.74,323.27Z" style="fill:#f5f5f5"></path><path d="M217.92,96.47c8.36,7.58,19.59,9.36,28.79,5.23C236.8,86.16,217.92,96.47,217.92,96.47Z" style="fill:#f5f5f5"></path><path d="M82.23,117.33l18.28,18.28s-3.86,25.67-11.83,18-6.27-12.31-6.27-12.31S66.88,150,61.93,132.26,82.23,117.33,82.23,117.33Z" style="fill:#ebebeb"></path><path d="M82.23,117.33l18.28,18.28s25.68-3.86,18-11.83-12.3-6.27-12.3-6.27S114.86,102,97.16,97,82.23,117.33,82.23,117.33Z" style="fill:#fafafa"></path><circle cx="81.04" cy="116.14" r="2.88" style="fill:#e0e0e0"></circle><path d="M101.76,136.85h0a2,2,0,0,1-2.84,0L80.63,117.39l1.67-1.67L101.71,134A2,2,0,0,1,101.76,136.85Z" style="fill:#e0e0e0"></path><path d="M428,164.7l-9,17.12s-19.21,2.91-15.51-4.48,7.42-7.2,7.42-7.2-9.6-9.21,2-16.66S428,164.7,428,164.7Z" style="fill:#fafafa"></path><path d="M428,164.7l-9,17.12s8.44,17.5,12.45,10.28,1.76-10.18,1.76-10.18,13,2.73,12.65-11S428,164.7,428,164.7Z" style="fill:#f0f0f0"></path><path d="M430.51,164.6a2.16,2.16,0,1,1-.9-2.92A2.15,2.15,0,0,1,430.51,164.6Z" style="fill:#e0e0e0"></path><path d="M418.37,183h0a1.48,1.48,0,0,1-.6-2l9.85-17.37,1.56.83-8.79,17.92A1.48,1.48,0,0,1,418.37,183Z" style="fill:#e0e0e0"></path><path d="M167.87,47.68l-6.32,12s-13.44,2-10.85-3.13,5.19-5,5.19-5-6.72-6.44,1.37-11.65S167.87,47.68,167.87,47.68Z" style="fill:#fafafa"></path><path d="M167.87,47.68l-6.32,12s5.9,12.25,8.71,7.2,1.23-7.13,1.23-7.13,9.11,1.91,8.85-7.71S167.87,47.68,167.87,47.68Z" style="fill:#f0f0f0"></path><path d="M169.62,47.6a1.51,1.51,0,1,1-.63-2A1.51,1.51,0,0,1,169.62,47.6Z" style="fill:#e0e0e0"></path><path d="M161.12,60.46h0A1,1,0,0,1,160.7,59l6.89-12.15,1.09.57L162.54,60A1,1,0,0,1,161.12,60.46Z" style="fill:#e0e0e0"></path></g><g id="freepik--Shadow--inject-44"><ellipse id="freepik--path--inject-44" cx="250" cy="416.24" rx="193.89" ry="11.32" style="fill:#f5f5f5"></ellipse></g><g id="freepik--Head--inject-44"><path d="M371.37,184.33c27.05-70.41-37.54-135.5-120.79-112.11-36.92,10.37-51.17,46-59.94,84.82-5.26,9.94-16.11,27.77-31.28,39.07a8.82,8.82,0,0,0-.43,13.82c6.61,5.56,14.85,7.69,19.78,8.49-1.35,6.25-2.81,12.24-4.48,17.85-10.83,36.5,20.39,55.28,55.6,58.83a132,132,0,0,1,1.94,35.37c-1.21,15.58,13,27.91,28.33,24.82l69-13.93a23.68,23.68,0,0,0,18.93-25.24,564.57,564.57,0,0,1-.16-89.87C355.86,216.81,363.64,204.42,371.37,184.33Z" style="fill:#F11320"></path><path d="M371.37,184.33c27.05-70.41-37.54-135.5-120.79-112.11-36.92,10.37-51.17,46-59.94,84.82-5.26,9.94-16.11,27.77-31.28,39.07a8.82,8.82,0,0,0-.43,13.82c6.61,5.56,14.85,7.69,19.78,8.49-1.35,6.25-2.81,12.24-4.48,17.85-10.83,36.5,20.39,55.28,55.6,58.83a132,132,0,0,1,1.94,35.37c-1.21,15.58,13,27.91,28.33,24.82l69-13.93a23.68,23.68,0,0,0,18.93-25.24,564.57,564.57,0,0,1-.16-89.87C355.86,216.81,363.64,204.42,371.37,184.33Z" style="fill:#fff;opacity:0.6"></path><path d="M378.08,415H207.66a9.94,9.94,0,0,1-9.51-12.84l19.56-64a10,10,0,0,1,6.22-6.48l125.64-44a9.93,9.93,0,0,1,13,7.12l25.23,108A9.94,9.94,0,0,1,378.08,415Z" style="fill:#F11320"></path><path d="M268.68,91.87a15,15,0,0,0-24.83,8.79,12.28,12.28,0,0,0-15.52,6l13.39,5.69a8.35,8.35,0,1,0,13.44,5.7l14.71,6.25,6.25-14.71a8.34,8.34,0,0,1-8.26-4.45,8.06,8.06,0,0,1-.42-1c-.11-.3-.2-.6-.28-.91a8.29,8.29,0,0,1-.24-1.93s0,0,0-.07a8.48,8.48,0,0,1,.67-3.25,8.34,8.34,0,0,1,14.25-1.88l4.1-9.65a16.07,16.07,0,0,0-17.25,5.34Z" style="fill:#fff"></path><path d="M261.23,155a8.26,8.26,0,0,0,4.52.56A8.33,8.33,0,0,0,264.41,139a6.79,6.79,0,0,0-.78,0h0l6.24-14.71-14.71-6.25a8.27,8.27,0,0,1-.61,4.13,8.35,8.35,0,1,1-12.83-9.83l-13.39-5.69a12.27,12.27,0,0,0,2.17,14,15,15,0,0,0-8.67,23h0l.22.29a15.13,15.13,0,0,0,5.41,4.6c6.27,3.81,16.27,7,28,9.58l2.44-5.73A8.25,8.25,0,0,0,261.23,155Z" style="opacity:0.1"></path><path d="M328.82,115a8.35,8.35,0,0,1,5,6.44,9.24,9.24,0,0,1,.1,1.18v.08A8.35,8.35,0,0,1,319,127.83l-6.24,14.7h0l14.71,6.24a8.35,8.35,0,1,0,13.44,5.71l13.49,5.73a12.32,12.32,0,0,0-7.14-15.63,15,15,0,0,0-12.34-23.27,16.06,16.06,0,0,0-5.17-12.94,16.23,16.23,0,0,0-1.87-1.46l-3.17,7.47A8.27,8.27,0,0,1,328.82,115Z" style="fill:#fff"></path><path d="M278.52,93.64a8.35,8.35,0,0,0-10.94,4.42,8.48,8.48,0,0,0-.67,3.25s0,0,0,.07a8.29,8.29,0,0,0,.24,1.93c.08.31.17.61.28.91a8.06,8.06,0,0,0,.42,1,8.34,8.34,0,0,0,8.26,4.45h0l-6.25,14.71h0l14.7,6.25a8.93,8.93,0,0,1,0-2,.17.17,0,0,1,0-.07s0-.09,0-.13a8.32,8.32,0,0,1,9.63-6.88,7.88,7.88,0,0,1,1.86.54h0A8.35,8.35,0,0,1,300.57,133a8.25,8.25,0,0,1-1.78,2.63,9.72,9.72,0,0,1-.76.68l14.71,6.24,6.24-14.7a8.35,8.35,0,0,0,14.92-5.13v-.08a9.24,9.24,0,0,0-.1-1.18,8.31,8.31,0,0,0-9.11-7h0l3.17-7.47a16,16,0,0,0-7.8-2.72,17.79,17.79,0,0,0-25.65-11.5,16.12,16.12,0,0,0-8.48-6.17l-4.1,9.65A8.34,8.34,0,0,0,278.52,93.64Z" style="opacity:0.1"></path><path d="M340.27,158.62a8.35,8.35,0,1,1-12.82-9.84l-14.71-6.24-6.25,14.71c-.16-.21-.35-.4-.53-.6a8.14,8.14,0,0,0-2.78-1.94,8.35,8.35,0,0,0-7.29,15c.24.13.5.26.76.37a8.39,8.39,0,0,0,4.13.62h0l-2.31,5.43a13.62,13.62,0,0,0,10.14-1.72,13.84,13.84,0,0,0,1.79-1.33,17.62,17.62,0,0,0,2.32,5.94,17.93,17.93,0,0,0,33.11-11,12.31,12.31,0,0,0,8.55-7.8l-13.49-5.73A8.39,8.39,0,0,1,340.27,158.62Z" style="opacity:0.1"></path><g style="opacity:0.2"><polygon points="327.26 363.52 327.93 388.81 369.85 388.81 369.18 363.52 327.26 363.52" style="fill:none"></polygon><polygon points="368.44 335.93 326.52 335.93 327.19 361.22 369.12 361.22 368.44 335.93" style="fill:none"></polygon></g></g></svg>