<svg xmlns="http://www.w3.org/2000/svg" viewBox="0 0 500 500"><g id="freepik--Floor--inject-55"><ellipse id="freepik--floor--inject-55" cx="250" cy="350.15" rx="235.59" ry="136.02" style="fill:#f5f5f5"></ellipse></g><g id="freepik--light-bulb--inject-55"><g id="freepik--Socket--inject-55"><path d="M271.64,326.59h0L269.82,307H230.19l-1.84,19.63h0c-.39,3.47,1.7,7,6.29,9.66,8.48,4.89,22.23,4.89,30.7,0C270,333.6,272,330.06,271.64,326.59Z" style="fill:#37474f"></path><path d="M236,315.84c-7.77-4.48-7.77-11.74,0-16.22s20.33-4.47,28.08,0,7.76,11.74,0,16.22S243.73,320.31,236,315.84Z" style="fill:#455a64"></path><path d="M271.21,321.78l-.62-6.57c-.56,2.53-2.53,5-5.9,6.92-8.1,4.68-21.25,4.68-29.37,0-3.37-1.94-5.33-4.39-5.9-6.92l-.62,6.57c.5,2.71,2.53,5.33,6.13,7.4,8.33,4.81,21.84,4.81,30.16,0C268.68,327.11,270.72,324.49,271.21,321.78Z" style="fill:#13F198"></path><path d="M250.32,328c11.05,0,17.76-3.81,20.79-7.31l-.46-4.86c-5.17,3.56-12.19,5.5-20,5.5H250a40,40,0,0,1-14.86-2.49c.2-1.24.44-2.6.71-4.1L234.18,307h-2.31L230,308.7l-1.68,17.89h0c-.39,3.47,1.7,7,6.29,9.66,8.48,4.89,22.23,4.89,30.7,0,.28-.16.56-.33.83-.51,0,0-6.42,3.2-16.28,2.78s-15.91-4.18-16.09-6.95a36.2,36.2,0,0,1,.42-6.82C238.09,326.69,243.46,328,250.32,328Z" style="opacity:0.2"></path><path d="M283.61,282.6a27.27,27.27,0,0,1,.42-5.35c1.27-5.86-2-12-9.75-16.48-13.41-7.74-35.15-7.74-48.56,0-7.79,4.5-11,10.62-9.75,16.48a27.27,27.27,0,0,1,.42,5.35,11.49,11.49,0,0,0,.28,2.32,27.07,27.07,0,0,1,.72,5.15,10.74,10.74,0,0,0,.33,2.37,23.19,23.19,0,0,1,.64,4.84,11.35,11.35,0,0,0,.3,2.15,25.38,25.38,0,0,1,.65,4.85c.2,4.37,3.18,8.71,9,12.05,12,6.93,31.46,6.93,43.46,0,5.78-3.34,8.76-7.68,9-12.05a25.38,25.38,0,0,1,.65-4.85,11.35,11.35,0,0,0,.3-2.15,23.19,23.19,0,0,1,.64-4.84,10.74,10.74,0,0,0,.33-2.37,27.07,27.07,0,0,1,.72-5.15A12.25,12.25,0,0,0,283.61,282.6Z" style="fill:#37474f"></path><ellipse id="freepik--shadow--inject-55" cx="250" cy="273.44" rx="26.17" ry="15.11" style="fill:#263238"></ellipse><path d="M273.09,303.05c-6.34,3.65-14.79,5.48-23.09,5.51s-16.75-1.86-23.08-5.51a20.75,20.75,0,0,1-7.95-7.49,18.35,18.35,0,0,1-1.24-3.12v0a23,23,0,0,1,.64,4.82,11.35,11.35,0,0,0,.3,2.15,2,2,0,0,1,.05.26,21.1,21.1,0,0,0,8.9,10.09c6.14,3.55,14.34,5.33,22.39,5.35s16.26-1.8,22.39-5.35a21.08,21.08,0,0,0,8.89-10.07c0-.1,0-.19.06-.28a11.35,11.35,0,0,0,.3-2.15,23.19,23.19,0,0,1,.64-4.84,19.1,19.1,0,0,1-1.25,3.12A20.72,20.72,0,0,1,273.09,303.05Z" style="fill:#455a64"></path><path d="M283.33,284.92a12.25,12.25,0,0,0,.28-2.32,27.27,27.27,0,0,1,.42-5.35,19.76,19.76,0,0,1-1.09,3.11c-1.55,3.08-4.43,6-8.66,8.44-6.66,3.85-15.55,5.78-24.28,5.8s-17.62-2-24.27-5.8c-4.23-2.43-7.12-5.36-8.67-8.44a19.76,19.76,0,0,1-1.09-3.11h0a27.23,27.23,0,0,1,.42,5.34,11.49,11.49,0,0,0,.28,2.32l0,.16a21.86,21.86,0,0,0,9.51,11c6.53,3.76,15.24,5.65,23.79,5.68s17.27-1.92,23.79-5.68a21.84,21.84,0,0,0,9.5-11C283.31,285,283.31,285,283.33,284.92Z" style="fill:#455a64"></path><path d="M256.41,299.46a6.42,6.42,0,0,0-6.42-6.69h0a6.41,6.41,0,0,0-6.41,6.69s0,2.37,0,2.79L245,345.16a3.91,3.91,0,0,0,3.9,3.74h2.15a3.91,3.91,0,0,0,3.9-3.74l1.44-42.91C256.43,301.83,256.41,299.46,256.41,299.46Z" style="fill:#455a64"></path><path d="M251.07,348.9h-2.15a3.91,3.91,0,0,1-3.9-3.74l-1.44-42.91a6.42,6.42,0,0,1,6.41-6.7h0a6.43,6.43,0,0,1,6.42,6.7L255,345.16A3.91,3.91,0,0,1,251.07,348.9Z" style="fill:#37474f"></path><path d="M250,372h0a1.93,1.93,0,0,1-1.92-1.87l-1.66-65.31a3.58,3.58,0,0,1,3.58-3.72h0a3.59,3.59,0,0,1,3.59,3.72l-1.67,65.31A1.92,1.92,0,0,1,250,372Z" style="fill:#13F198"></path><path d="M248.07,370.15a1.92,1.92,0,0,0,3.84,0l.21-7.12-.08-.22s-.27,3.31-2,2.49c-1.27-.59-2.05-4.53-2.31-8.46Z" style="opacity:0.2"></path><path d="M253.58,304.84a3.59,3.59,0,0,0-3.59-3.72h0a4,4,0,0,0-.6.05c2.19.42,2.89,1.76,3,7.09.13,5.57-.42,59.58-.42,59.59Z" style="fill:#fff;opacity:0.5"></path><path d="M283.79,282.38a3.45,3.45,0,0,0-3.42.36,10.85,10.85,0,0,0-4.86,8.83l1.17,37.59a1.83,1.83,0,0,0,.81,1.66l2.42,1.4a1.85,1.85,0,0,0,1.83-.19l2.09-1.2a5.9,5.9,0,0,0,2.65-4.45l1.17-39.22c0-1.68-.51-2.85-1.43-3.38Z" style="fill:#263238"></path><path d="M281.74,332c-1.42.82-2.61.16-2.65-1.48L277.92,293a10.85,10.85,0,0,1,4.86-8.83c2.78-1.6,5-.24,4.87,3l-1.17,39.22a5.9,5.9,0,0,1-2.65,4.45Z" style="fill:#37474f"></path><path d="M283.79,282.38l2.43,1.4a3.41,3.41,0,0,0-3.44.35A10.72,10.72,0,0,0,278.4,290L276,288.56a10.68,10.68,0,0,1,4.38-5.82A3.43,3.43,0,0,1,283.79,282.38Z" style="fill:#455a64"></path><path d="M287.38,292.35l-2.19-1.26-2.41,1.39v61.35c2.54,1.47,4.89,1.53,6.79.43l2.39-1.38c2.39-1.36,4.05-4.57,4.45-9.18l2.19-25.27C299.45,308.52,294.19,296.28,287.38,292.35Z" style="fill:#13F198"></path><g style="opacity:0.2"><path d="M287.38,292.35l-2.19-1.26-2.41,1.39v61.35c2.54,1.47,4.89,1.53,6.79.43l2.39-1.38c2.39-1.36,4.05-4.57,4.45-9.18l2.19-25.27C299.45,308.52,294.19,296.28,287.38,292.35Z" style="fill:#fff"></path></g><path d="M282.78,353.83h0V292.48l2.19,1.26c6.81,3.93,12.07,16.17,11.22,26.08L294,345.09C293.29,353.38,288.48,357.12,282.78,353.83Z" style="fill:#13F198"></path><path d="M282.78,353.83h0V292.48l2.19,1.26c6.81,3.93,12.07,16.17,11.22,26.08L294,345.09C293.29,353.38,288.48,357.12,282.78,353.83Z" style="opacity:0.2"></path><path d="M294.06,344.39c-.35,4-4.36,5.6-7.27,2.5s-4-7.11-4-19.57v26.51c5.7,3.29,10.51-.45,11.22-8.74Z" style="opacity:0.2"></path><path d="M216.21,282.38a3.45,3.45,0,0,1,3.42.36,10.81,10.81,0,0,1,4.85,8.83l-1.16,37.59a1.83,1.83,0,0,1-.81,1.66l-2.42,1.4a1.85,1.85,0,0,1-1.83-.19l-2.09-1.2a5.9,5.9,0,0,1-2.65-4.45l-1.17-39.22c0-1.68.51-2.85,1.43-3.38Z" style="fill:#263238"></path><path d="M218.26,332c1.42.82,2.61.16,2.65-1.48L222.07,293a10.81,10.81,0,0,0-4.85-8.83c-2.78-1.6-5-.24-4.87,3l1.17,39.22a5.9,5.9,0,0,0,2.65,4.45Z" style="fill:#37474f"></path><path d="M216.21,282.38c-.42.23-2,1.16-2.43,1.4a3.41,3.41,0,0,1,3.44.35A10.72,10.72,0,0,1,221.6,290l2.41-1.39a10.68,10.68,0,0,0-4.38-5.82A3.43,3.43,0,0,0,216.21,282.38Z" style="fill:#455a64"></path><path d="M212.62,292.35l2.19-1.26,2.41,1.39v61.35c-2.54,1.47-4.89,1.53-6.79.43L208,352.88c-2.39-1.36-4-4.57-4.45-9.18l-2.19-25.27C200.55,308.52,205.81,296.28,212.62,292.35Z" style="fill:#13F198"></path><g style="opacity:0.2"><path d="M212.62,292.35l2.19-1.26,2.41,1.39v61.35c-2.54,1.47-4.89,1.53-6.79.43L208,352.88c-2.39-1.36-4-4.57-4.45-9.18l-2.19-25.27C200.55,308.52,205.81,296.28,212.62,292.35Z" style="fill:#fff"></path></g><path d="M217.22,353.83h0V292.48L215,293.74c-6.81,3.93-12.07,16.17-11.22,26.08L206,345.09C206.71,353.38,211.52,357.12,217.22,353.83Z" style="fill:#13F198"></path><path d="M217.22,353.83h0V292.48L215,293.74c-6.81,3.93-12.07,16.17-11.22,26.08L206,345.09C206.71,353.38,211.52,357.12,217.22,353.83Z" style="opacity:0.2"></path><path d="M205.94,344.39c.35,4,4.36,5.6,7.27,2.5s4-7.11,4-19.57v26.51c-5.7,3.29-10.51-.45-11.22-8.74Z" style="opacity:0.2"></path></g><g id="freepik--Bulb--inject-55"><path d="M250,58.26a86.32,86.32,0,0,0-86.32,86.32c0,68.52,56.54,79.9,56.54,107.52,0,4.4,2.91,8.8,8.72,12.15,11.63,6.72,30.49,6.72,42.12,0,5.81-3.36,8.72-7.76,8.72-12.16h0c0-27.62,56.54-39,56.54-107.52A86.32,86.32,0,0,0,250,58.26Z" style="fill:#13F198"></path><path d="M250,58.26a86.32,86.32,0,0,0-86.32,86.32c0,68.52,56.54,79.9,56.54,107.52,0,4.4,2.91,8.8,8.72,12.15,11.63,6.72,30.49,6.72,42.12,0,5.81-3.36,8.72-7.76,8.72-12.16h0c0-27.62,56.54-39,56.54-107.52A86.32,86.32,0,0,0,250,58.26Z" style="fill:#fff;opacity:0.6000000000000001;mix-blend-mode:screen"></path><path d="M293.92,93.11a13.16,13.16,0,0,0-3,1.8c-3.43,2.69-4.83,7.45-4.19,11.76,1.22,8.35,9.26,13.56,13.91,20a73.94,73.94,0,0,1,11.25,23.53c.69,2.52,1.59,6.69,2.88,8.95a6.75,6.75,0,0,0,8.59,2.9c3.35-1.79,5.09-6,5.56-9.27,2.8-19.53-1.19-34.14-11-49.17C312.49,95.47,304,88.77,293.92,93.11Z" style="fill:#fff;opacity:0.2"></path><path d="M312.52,172.61a9.51,9.51,0,0,0,.9,7.74,5.53,5.53,0,0,0,7.58,1.72,8.94,8.94,0,0,0,4.1-7.47c-.05-3.17-2.1-6.54-5.61-6.89C316.22,167.39,313.4,170,312.52,172.61Z" style="fill:#fff;opacity:0.2"></path><path d="M232.72,243.36c-1.92-10.93-4.9-16.8-18.37-23.71s-36.78-17.4-46.56-45.55c13,43.18,52.43,54.93,52.43,78,0,4.4,2.91,8.8,8.72,12.15a35.15,35.15,0,0,0,8,3.29C235.74,260.61,233.91,250.17,232.72,243.36Z" style="fill:#13F198;opacity:0.25"></path><path d="M267.28,243.36c1.92-10.93,4.9-16.8,18.37-23.71s36.78-17.4,46.56-45.55c-13,43.18-52.43,54.93-52.43,78,0,4.4-2.91,8.8-8.72,12.15a35.26,35.26,0,0,1-8,3.29C264.26,260.61,266.09,250.17,267.28,243.36Z" style="fill:#13F198;opacity:0.25"></path><circle cx="250" cy="141.87" r="26.17" transform="translate(-35.26 106.47) rotate(-22.5)" style="fill:#13F198"></circle><circle cx="250" cy="141.87" r="26.17" transform="translate(-35.26 106.47) rotate(-22.5)" style="opacity:0.15"></circle><circle cx="250" cy="144.91" r="26.17" transform="translate(-36.43 106.7) rotate(-22.5)" style="fill:#13F198"></circle><path d="M259.43,169.32,251,146.06l21.44,12.38c.18-.29.35-.59.51-.89l-21.44-12.38,24.38-4.29c-.05-.34-.11-.68-.18-1l-24.37,4.3,15.9-19q-.37-.34-.78-.66l-15.91,19V118.76h-1v24.75l-15.91-19q-.41.32-.78.66l15.9,19-24.37-4.3c-.07.33-.13.67-.18,1l24.37,4.29-21.43,12.38c.16.3.33.6.51.89L249,146.06l-8.47,23.26,1,.35L250,146.41l8.47,23.26Z" style="opacity:0.2"></path><circle cx="250" cy="145.05" r="20.58" style="fill:#37474f"></circle><path d="M250,124.47a20.58,20.58,0,0,0-20.48,18.62,20.57,20.57,0,0,0,41,.13A20.57,20.57,0,0,0,250,124.47Z" style="fill:#455a64"></path><path d="M266.44,139.82a6.15,6.15,0,1,1-6.15-6.14A6.14,6.14,0,0,1,266.44,139.82Z" style="fill:#e0e0e0"></path><path d="M262.6,152a3.54,3.54,0,1,1-3.54-3.54A3.54,3.54,0,0,1,262.6,152Z" style="fill:#e0e0e0"></path><circle cx="250" cy="200.54" r="15.12" transform="translate(-57.71 110.94) rotate(-22.5)" style="fill:#13F198"></circle><circle cx="250" cy="200.54" r="15.12" transform="translate(-57.71 110.94) rotate(-22.5)" style="opacity:0.15"></circle><circle cx="250" cy="202.29" r="15.12" transform="translate(-58.38 111.07) rotate(-22.5)" style="fill:#13F198"></circle><path d="M255.45,216.39,250.56,203l12.38,7.15.3-.52-12.39-7.15L264.94,200c0-.2-.07-.39-.11-.58l-14.08,2.48,9.19-11-.45-.38-9.19,10.95v-14.3h-.6v14.3l-9.19-10.95-.45.38,9.19,11-14.08-2.48c0,.19-.08.38-.11.58l14.09,2.48-12.39,7.15.3.52L249.44,203l-4.89,13.43.56.2L250,203.16l4.89,13.43Z" style="opacity:0.2"></path><circle cx="250" cy="202.37" r="11.87" transform="translate(-69.87 236.05) rotate(-45)" style="fill:#37474f"></circle><path d="M250,190.5a11.85,11.85,0,0,0-11.81,10.74,11.87,11.87,0,0,0,23.63.07A11.87,11.87,0,0,0,250,190.5Z" style="fill:#455a64"></path><path d="M259.48,199.35a3.54,3.54,0,1,1-3.54-3.54A3.54,3.54,0,0,1,259.48,199.35Z" style="fill:#e0e0e0"></path><path d="M257.27,206.37a2,2,0,1,1-2-2A2.05,2.05,0,0,1,257.27,206.37Z" style="fill:#e0e0e0"></path><path d="M285.46,68.49h0a.3.3,0,0,1-.08-.08,1.54,1.54,0,0,1-.17-.19C274.62,56.49,253.14,53.67,250,53.67s-24.62,2.82-35.21,14.55l-.18.19a.6.6,0,0,1-.08.08h0c-7.76,8.67-5.34,19.59,7.25,26.86,15.58,9,40.84,9,56.42,0C290.8,88.08,293.22,77.16,285.46,68.49Z" style="fill:#455a64"></path><path d="M235.22,58.85c-8.19,2.47-24,10.4-21.21,22.53,2.66,11.39,25.37,18.47,34,18-11.7-1.57-23.17-13.51-24.6-21.45S228.2,62,235.22,58.85Z" style="fill:#37474f"></path><path d="M257.58,57.93c6.5,1.5,21.17,8.42,28.39,16.26C282.37,67.79,269.88,59.23,257.58,57.93Z" style="fill:#e0e0e0"></path><path d="M253.05,56.26,250,26.38,247,56.26h0a1.51,1.51,0,0,0,.89,1.24,4.77,4.77,0,0,0,4.32,0,1.51,1.51,0,0,0,.89-1.24Z" style="fill:#e0e0e0"></path><path d="M252.93,26.38A2.93,2.93,0,1,1,250,23.45,2.93,2.93,0,0,1,252.93,26.38Z" style="fill:#13F198"></path><path d="M249.94,28a2.71,2.71,0,0,1-2.13-3.59,2.9,2.9,0,0,0-.74,1.93,2.93,2.93,0,0,0,5.86,0A3,3,0,0,1,249.94,28Z" style="opacity:0.2"></path><circle cx="250" cy="24.83" r="0.86" style="fill:#fff;opacity:0.30000000000000004"></circle><circle cx="251.73" cy="25.5" r="0.44" style="fill:#fff;opacity:0.30000000000000004"></circle><g style="opacity:0.5"><path d="M276.17,243.11a17.45,17.45,0,0,1-5.1,5.24c-1,.71-2.11,1.25-3.18,1.86a35,35,0,0,1-3.4,1.44,43.79,43.79,0,0,1-29,0c-1.17-.39-2.28-.95-3.4-1.45a32.59,32.59,0,0,1-3.18-1.86,17.3,17.3,0,0,1-5.1-5.23,18.34,18.34,0,0,0,5.4,4.76,35.94,35.94,0,0,0,3.19,1.68,34.33,34.33,0,0,0,3.38,1.26,48,48,0,0,0,28.4,0,31.87,31.87,0,0,0,3.37-1.27c1.07-.54,2.17-1,3.19-1.67A18.52,18.52,0,0,0,276.17,243.11Z" style="fill:#13F198"></path><path d="M251,258.34a1,1,0,1,1-.95-1A1,1,0,0,1,251,258.34Z" style="fill:#13F198"></path><circle cx="266.31" cy="254.3" r="0.96" style="fill:#13F198"></circle><circle cx="233.68" cy="254.3" r="0.96" style="fill:#13F198"></circle></g></g></g></svg>