<svg xmlns="http://www.w3.org/2000/svg" viewBox="0 0 500 500"><g id="freepik--background-complete--inject-22"><rect y="382.4" width="500" height="0.25" style="fill:#ebebeb"></rect><rect x="416.78" y="398.49" width="33.12" height="0.25" style="fill:#ebebeb"></rect><rect x="322.53" y="401.21" width="8.69" height="0.25" style="fill:#ebebeb"></rect><rect x="396.59" y="389.21" width="19.19" height="0.25" style="fill:#ebebeb"></rect><rect x="52.46" y="390.89" width="43.19" height="0.25" style="fill:#ebebeb"></rect><rect x="104.56" y="390.89" width="6.33" height="0.25" style="fill:#ebebeb"></rect><rect x="131.47" y="395.11" width="93.68" height="0.25" style="fill:#ebebeb"></rect><path d="M237,337.8H43.91a5.71,5.71,0,0,1-5.7-5.71V60.66A5.71,5.71,0,0,1,43.91,55H237a5.71,5.71,0,0,1,5.71,5.71V332.09A5.71,5.71,0,0,1,237,337.8ZM43.91,55.2a5.46,5.46,0,0,0-5.45,5.46V332.09a5.46,5.46,0,0,0,5.45,5.46H237a5.47,5.47,0,0,0,5.46-5.46V60.66A5.47,5.47,0,0,0,237,55.2Z" style="fill:#ebebeb"></path><path d="M453.31,337.8H260.21a5.72,5.72,0,0,1-5.71-5.71V60.66A5.72,5.72,0,0,1,260.21,55h193.1A5.71,5.71,0,0,1,459,60.66V332.09A5.71,5.71,0,0,1,453.31,337.8ZM260.21,55.2a5.47,5.47,0,0,0-5.46,5.46V332.09a5.47,5.47,0,0,0,5.46,5.46h193.1a5.47,5.47,0,0,0,5.46-5.46V60.66a5.47,5.47,0,0,0-5.46-5.46Z" style="fill:#ebebeb"></path><rect x="142.7" y="198.49" width="6.73" height="184.16" style="fill:#f5f5f5"></rect><rect x="169.31" y="221.87" width="6.73" height="160.78" style="fill:#f5f5f5"></rect><rect x="195.67" y="245.25" width="6.73" height="137.4" style="fill:#f5f5f5"></rect><rect x="222.04" y="229.66" width="6.73" height="152.99" style="fill:#f5f5f5"></rect><rect x="248.41" y="221.87" width="6.73" height="160.78" style="fill:#f5f5f5"></rect><rect x="274.77" y="206.28" width="6.73" height="176.37" style="fill:#f5f5f5"></rect><rect x="301.14" y="214.08" width="6.73" height="168.57" style="fill:#f5f5f5"></rect><rect x="327.51" y="206.28" width="6.73" height="176.37" style="fill:#f5f5f5"></rect><rect x="353.87" y="190.69" width="6.73" height="191.95" style="fill:#f5f5f5"></rect><rect x="380.24" y="175.11" width="6.73" height="207.54" style="fill:#f5f5f5"></rect><rect x="406.6" y="159.52" width="6.73" height="223.13" style="fill:#f5f5f5"></rect><path d="M199,234.3a1.52,1.52,0,0,1-1-.43l-56.34-54.93a1.5,1.5,0,0,1,2.1-2.15l55.43,54.05,78.07-57a1.51,1.51,0,0,1,2,.22L304.82,203l105.8-60.62a1.5,1.5,0,1,1,1.49,2.61L305.25,206.23a1.51,1.51,0,0,1-1.87-.31l-25.46-28.8-78,56.89A1.5,1.5,0,0,1,199,234.3Z" style="fill:#f0f0f0"></path><polygon points="192.65 381.5 143.48 187.59 145.94 177.9 143.38 177.9 143.38 122.52 136.78 122.52 136.78 177.9 134.22 177.9 136.68 187.59 87.5 381.5 94.31 381.5 136.78 214.02 136.78 382.52 143.38 382.52 143.38 214.02 185.85 381.5 192.65 381.5" style="fill:#e0e0e0"></polygon><circle cx="140.08" cy="176.93" r="38.07" transform="translate(-64.3 272.61) rotate(-76.72)" style="fill:#e6e6e6"></circle><circle cx="140.08" cy="176.93" r="32.5" style="fill:#f5f5f5"></circle><circle cx="140.08" cy="176.93" r="25.44" style="fill:#e6e6e6"></circle><circle cx="140.08" cy="176.93" r="20.85" transform="translate(-57.04 67.07) rotate(-22.5)" style="fill:#f5f5f5"></circle><circle cx="140.08" cy="176.93" r="14.47" transform="translate(-64.3 272.61) rotate(-76.72)" style="fill:#e6e6e6"></circle><circle cx="140.08" cy="176.93" r="10.39" transform="translate(-57.04 67.07) rotate(-22.5)" style="fill:#f5f5f5"></circle><path d="M144.79,176.93a4.72,4.72,0,1,1-4.71-4.72A4.71,4.71,0,0,1,144.79,176.93Z" style="fill:#e6e6e6"></path><polygon points="91.22 145.53 92.25 152.41 85.09 154.82 92.25 158.58 99.39 156.07 98.14 149.29 91.22 145.53" style="fill:#e6e6e6"></polygon><path d="M140.08,177.93a1.07,1.07,0,0,1-.46-.11L88.39,151.56a1,1,0,0,1,.91-1.78L140.53,176a1,1,0,0,1,.44,1.34A1,1,0,0,1,140.08,177.93Z" style="fill:#e0e0e0"></path><path d="M210.58,134.16a8.79,8.79,0,0,1,11.35-8.44,18.66,18.66,0,0,1,18.48-21.38,18.47,18.47,0,0,1,3.43.32,16.32,16.32,0,0,1,30.26,8.25h.28a15,15,0,1,1,0,30.08H219.14v0A8.81,8.81,0,0,1,210.58,134.16Z" style="fill:#f0f0f0"></path><path d="M367.47,129.32a4.25,4.25,0,0,1,4.25-4.25,4.5,4.5,0,0,1,1.22.18,9.36,9.36,0,0,1-.1-1.3,9,9,0,0,1,10.66-8.85,7.87,7.87,0,0,1,14.58,4h.13a7.25,7.25,0,0,1,0,14.5H371.6A4.24,4.24,0,0,1,367.47,129.32Z" style="fill:#f0f0f0"></path><path d="M94.72,134.61a2.85,2.85,0,0,1,2.86-2.85,2.81,2.81,0,0,1,.82.12,6.4,6.4,0,0,1-.07-.88,6.05,6.05,0,0,1,6-6,6,6,0,0,1,1.12.11,5.28,5.28,0,0,1,9.8,2.67h.09a4.88,4.88,0,0,1,0,9.75H97.5A2.85,2.85,0,0,1,94.72,134.61Z" style="fill:#f0f0f0"></path></g><g id="freepik--Shadow--inject-22"><ellipse id="freepik--path--inject-22" cx="250" cy="416.24" rx="193.89" ry="11.32" style="fill:#f5f5f5"></ellipse></g><g id="freepik--Arrow--inject-22"><path d="M411.78,159.93l-6.28-40-33.08,23.39,11,4.66c-10.62,24.34-45.07,95.65-104.35,148.23C203.38,363.36,97.44,396.4,96.38,396.72l5.86,19.13c4.5-1.38,111.08-34.58,190.14-104.71,63-55.88,98.42-129.58,109.54-155.38Z" style="fill:#13B6F1"></path><path d="M405.78,152.93l-.28-33-33.08,23.39,11,4.66c-10.62,24.34-45.07,95.65-104.35,148.23C203.38,363.36,97.44,396.4,96.38,396.72l1.86,12.13c4.5-1.38,111.08-31.58,190.14-101.71,63-55.88,96.42-130.58,107.54-156.38Z" style="fill:#fff;isolation:isolate;opacity:0.4"></path><path d="M400,161.62a1.47,1.47,0,0,1-.46-.07l-19.21-6.21a1.5,1.5,0,1,1,.92-2.85l19.21,6.2a1.5,1.5,0,0,1-.46,2.93Z" style="fill:#263238"></path><path d="M400,161.62a1.47,1.47,0,0,1-.46-.07l-19.21-6.21a1.5,1.5,0,1,1,.92-2.85l19.21,6.2a1.5,1.5,0,0,1-.46,2.93Z" style="fill:#fff;opacity:0.4"></path></g></svg>