<svg xmlns="http://www.w3.org/2000/svg" viewBox="0 0 500 500"><g id="freepik--background-complete--inject-72"><rect y="382.4" width="500" height="0.25" style="fill:#ebebeb"></rect><rect x="416.78" y="398.49" width="33.12" height="0.25" style="fill:#ebebeb"></rect><rect x="322.53" y="401.21" width="8.69" height="0.25" style="fill:#ebebeb"></rect><rect x="396.59" y="389.21" width="19.19" height="0.25" style="fill:#ebebeb"></rect><rect x="52.46" y="390.89" width="43.19" height="0.25" style="fill:#ebebeb"></rect><rect x="104.56" y="390.89" width="6.33" height="0.25" style="fill:#ebebeb"></rect><rect x="131.47" y="395.11" width="93.68" height="0.25" style="fill:#ebebeb"></rect><path d="M237,337.8H43.91a5.71,5.71,0,0,1-5.7-5.71V60.66A5.71,5.71,0,0,1,43.91,55H237a5.71,5.71,0,0,1,5.71,5.71V332.09A5.71,5.71,0,0,1,237,337.8ZM43.91,55.2a5.46,5.46,0,0,0-5.45,5.46V332.09a5.46,5.46,0,0,0,5.45,5.46H237a5.47,5.47,0,0,0,5.46-5.46V60.66A5.47,5.47,0,0,0,237,55.2Z" style="fill:#ebebeb"></path><path d="M453.31,337.8H260.21a5.72,5.72,0,0,1-5.71-5.71V60.66A5.72,5.72,0,0,1,260.21,55h193.1A5.71,5.71,0,0,1,459,60.66V332.09A5.71,5.71,0,0,1,453.31,337.8ZM260.21,55.2a5.47,5.47,0,0,0-5.46,5.46V332.09a5.47,5.47,0,0,0,5.46,5.46h193.1a5.47,5.47,0,0,0,5.46-5.46V60.66a5.47,5.47,0,0,0-5.46-5.46Z" style="fill:#ebebeb"></path><polygon points="393.93 146.31 285.09 109.55 285 109.46 227.5 50.52 181.38 92.64 180.71 91.9 227.54 49.13 285.63 108.67 393.55 145.12 437.85 84.19 438.66 84.78 393.93 146.31" style="fill:#f0f0f0"></polygon><path d="M55.61,236.79a5.38,5.38,0,1,1-5.38-5.38A5.38,5.38,0,0,1,55.61,236.79Z" style="fill:#f0f0f0"></path><path d="M232.9,49.82a5.38,5.38,0,1,1-5.38-5.38A5.38,5.38,0,0,1,232.9,49.82Z" style="fill:#f0f0f0"></path><path d="M443.63,84.48a5.38,5.38,0,1,1-5.38-5.38A5.38,5.38,0,0,1,443.63,84.48Z" style="fill:#f0f0f0"></path><path d="M444.1,368.38a5.38,5.38,0,1,1-5.38-5.38A5.38,5.38,0,0,1,444.1,368.38Z" style="fill:#f0f0f0"></path><path d="M290.74,109.11a5.38,5.38,0,1,1-5.38-5.38A5.38,5.38,0,0,1,290.74,109.11Z" style="fill:#f0f0f0"></path><polygon points="191.35 368.52 190.94 368.44 56.02 342.97 56.2 341.99 190.71 367.38 284.89 108.94 285.83 109.28 191.35 368.52" style="fill:#f0f0f0"></polygon><rect x="84.66" y="122.93" width="1" height="61.49" transform="translate(-86.34 115.55) rotate(-48.47)" style="fill:#f0f0f0"></rect><polygon points="438.46 368.81 371.75 327.47 373.21 327.07 443.29 259.65 393.28 145.92 394.2 145.51 444.49 259.88 444.24 260.13 374.01 327.69 438.98 367.96 438.46 368.81" style="fill:#f0f0f0"></polygon><polygon points="56.53 342.75 55.69 342.2 96.01 279.93 49.53 236.81 49.87 236.45 108.08 173.42 108.43 173.62 373.71 327.09 373.21 327.95 108.27 174.69 50.94 236.76 97.3 279.77 56.53 342.75" style="fill:#f0f0f0"></polygon></g><g id="freepik--Shadow--inject-72"><ellipse id="freepik--path--inject-72" cx="250" cy="416.24" rx="193.89" ry="11.32" style="fill:#f5f5f5"></ellipse></g><g id="freepik--World--inject-72"><path d="M241,299.13q4,.33,8,.27a81.27,81.27,0,0,0,79.72-74.58c0-.5.08-1,.11-1.48A81.08,81.08,0,0,0,325.36,194h0a81.38,81.38,0,0,0-62.71-55.82c-2.71-.49-5.46-.87-8.25-1.1a81.17,81.17,0,0,0-68,27.57A81.28,81.28,0,0,0,241,299.13Z" style="fill:#F11320"></path><g style="opacity:0.7000000000000001"><path d="M241,299.13q4,.33,8,.27a81.27,81.27,0,0,0,79.72-74.58c0-.5.08-1,.11-1.48A81.08,81.08,0,0,0,325.36,194h0a81.38,81.38,0,0,0-62.71-55.82c-2.71-.49-5.46-.87-8.25-1.1a81.17,81.17,0,0,0-68,27.57A81.28,81.28,0,0,0,241,299.13Z" style="fill:#fff"></path></g><path d="M186.82,237.94c-.27,1.51-2.19,2.06-3.74,2.25l-7,.87c-1.1-2.89-4.52-2.91-6.92-1.79A81.31,81.31,0,0,0,241,299.13q4,.33,8,.27a1.37,1.37,0,0,0,.13-.2c1.22-2.13-.54-4-1.48-5.76-.21-.39-2.21-5.43-1.55-5.44a21.89,21.89,0,0,1-6.33-.82.66.66,0,0,1-.4-.24c-.2-.34.27-.66.64-.75,1-.22,1.95-.28,2.89-.56a3.33,3.33,0,0,0,2.24-1.76c.37-.92.09-2,.3-2.94a4,4,0,0,1,2.31-2.62,13,13,0,0,1,3.35-.9c-2.45-1.34-.66-4.12-2.59-6-.62-.59-1.52-1.32-1.14-2.1s1.66-.72,1.82-1.52c.11-.56-.48-1-1-1.15a6.3,6.3,0,0,1-1.67-.36,1.5,1.5,0,0,1-.47-2.09c.42-.59,1.2-.77,1.84-1.11s1.21-1.12.83-1.74a1.2,1.2,0,0,0-.37-.34c-1-.65-2.41-.11-3.42.57s-2,1.54-3.27,1.53a1,1,0,0,1,.4-1.38,1.91,1.91,0,0,0,.49-.26c.29-.29.08-.77-.12-1.13a7.33,7.33,0,0,1-.56-5.58l7.44.14c.06-.56.12-.89.72-1.06-1.67-2-3.48-3.84-5-6a1.46,1.46,0,0,0-.66-.64,4.54,4.54,0,0,0-1,0c-1.07-.15-1.24-1.62-1.13-2.69-.16-.33-.68-.19-.88.11s-.25.69-.49,1a1.35,1.35,0,0,1-1.5.16,3.56,3.56,0,0,1-1.89-4.63,1,1,0,0,1,.4-.52c.43-.24.94.06,1.42.14,1.9.34,1.61-1.75,1.16-2.75-.62-1.34-2.47-2.21-3.81-2.55-1.57-.41-12-2.41-10.32-5.82a1.59,1.59,0,0,1,.81-.68,24.11,24.11,0,0,1,3.2-.61c1-.29,2.06-1.38,1.6-2.37-.18-.4-.56-.67-.77-1.05-.59-1.07.32-2.45-.1-3.59a9.55,9.55,0,0,0-.92-1.39c-.28-.49-.33-1.22.15-1.51s1.27.16,1.84-.1a1,1,0,0,0,0-1.62,1.69,1.69,0,0,0-1.85.14,2.18,2.18,0,0,1-.89.49c-.61.08-1.07-.52-1.38-1.06l-1.49-2.53a1.43,1.43,0,0,0-1.18,1c-.19.52-.23,1.1-.44,1.62-1.06,2.51-4.87,2.21-4.38,5.64a1.64,1.64,0,0,1,1.66,2c-.4,1.22-2.22,1.88-2,3.13.09.44.44.79.51,1.23.19,1.21-1.68,1.66-2.49,1.93-2.67.92-2.85-.83-5.16-.94-1.06,0-2,.67-3.06.79s-1.93-.31-2.91-.25c-2.67.15-1.33,3.78-1.14,5.36-1.44-1-3.36.16-4.5,1.45-1.76,2-1.59,1.63-3.92,1.71a1.72,1.72,0,0,0-1.51.89c-.43,1,.49,2,.52,3.1,0,.52-.19,1-.15,1.53.13,1.35,1.72,1.93,2.68,2.87a3.68,3.68,0,0,1,1,3.24,7.85,7.85,0,0,1-2-.15l-1.21-2.33a4.92,4.92,0,0,0-1.36-1.85,4.44,4.44,0,0,1-1-.78c-.5-.7-.09-1.65,0-2.51.29-2.07-.75-5.55-1.26-7.6s-2-3.05-2.52-5.07a.64.64,0,0,0-.91-.29,1.38,1.38,0,0,0-.57.91,3.72,3.72,0,0,0,.22,2.5c-.47-1-3,1.66-3.2,2.17-.26.84.3,2,.27,2.89-.05,2.16-.57,3.36-2.79,1.78-.85-.6-1.94-1.32-2.84-.79a1.35,1.35,0,0,1-.75,1.52,2.87,2.87,0,0,1-1.81.14,1.78,1.78,0,0,1-1.09-.54,3,3,0,0,0-.4-.52c-.57-.45-1.29.32-1.6,1" style="fill:#F11320;isolation:isolate"></path><path d="M285,174c.45.71,0,1.62-.54,2.28s-1.11,1.44-.89,2.24l2.9.27a.51.51,0,0,1,.57.71c-.07.62-.15,1.24-.22,1.86-.61.48-1.2-1-2-.87-.33.07-.5.43-.69.71-1.56,2.46-4.3.62-5.76-.66-1.7-1.48-4.16-1.57-6.41-1.6a3,3,0,0,0-2.28.6c-.56.56-.59,1.44-.87,2.19-.49,1.3-1.73,2.15-2.44,3.34-2.46,4.17,2,7.38,5.73,6.24,1.95-.58,1.61-.93,3.6-.35.83.24,1.85,0,2.36,1a1.55,1.55,0,0,1-1.35,2.26,6.56,6.56,0,0,1-3.21-.37c.38,1.32,0,2.82-.14,4.22a1.84,1.84,0,0,0-2,2.46c.63,0,1.49.25,1.44.88a1.22,1.22,0,0,1-.22.51,20.91,20.91,0,0,0-1.39,1.86c-.59,1-.58,4.15-2.07,4.52-.26.07-.54,0-.8.13a1.19,1.19,0,0,0-.73,1.39,1.64,1.64,0,0,0,1.18,1.14c.37.1.77.09,1.13.21,1.92.67.23,2.57.69,3.51a17.32,17.32,0,0,0,3.84,2.55,4.55,4.55,0,0,0-2.17,3.42c0,1.56,1.15,2.32,2.63,2.79s3.48.65,4.61,1.09c.61.23,1.35.45,1.86.05s.5-1.7,1.24-2.05a2.16,2.16,0,0,1,.76-.12,2.87,2.87,0,0,0,2.45-3.23c.35-.45,1-.41,1.61-.39s1.3-.18,1.38-.75-.74-1-1.4-1a7.16,7.16,0,0,0-2,.16,2.33,2.33,0,0,1-1.47.06,2,2,0,0,1-.78-.81,4.42,4.42,0,0,1-.82-2.58,1.89,1.89,0,0,1,1.73-1.79,3.64,3.64,0,0,0,.73.05c.63-.1.9-.87.86-1.5a5.69,5.69,0,0,1-.08-1.88c.17-.61,1-1.06,1.44-.59.35-.8.58-2-.21-2.37a2.3,2.3,0,0,0-.83-.14c-1.74-.17-4.09-2.52-2.15-3.86,1.27-.88,3.32,1,4.43-.71.54-.8.21-2,.76-2.75.32-.23.7.24.77.64a3.72,3.72,0,0,1-1.21,3.42c1,.57,2.52-.08,3.19.83s-.32,2.48.55,3.18a1.73,1.73,0,0,0,.89.31c1.57.23,4.49,0,4.58,2.2a3.64,3.64,0,0,0,.05.81c.24.79,1.32.87,2.14.78.42-.8-.13-1.74-.5-2.58s-.33-2.11.55-2.32c.64-.15,1.38.4,1.91,0,.25-.17.36-.5.63-.64.65-.34,1.19.65,1.89.87,1,.31,1.69-1,1.69-2s-.25-2.15.4-2.92c.21-.24.49-.41.72-.63a4.21,4.21,0,0,0,.94-2.73c.16-1.56,6.33,2.49,6.72,2.55,3,.5,4.78-2.44,6.81-4.05a18.16,18.16,0,0,1,3.54-2,82,82,0,0,0-58.85-55,26.52,26.52,0,0,0-3.78-.73c.38,1.89,1.55,4.87.28,6.66-1.61,2.28-5,.29-6.27,3,0,.68,1.1.57,1.62,1a2.42,2.42,0,0,1,.51,1c.15.35.49.7.85.59.42.63-.24,1.41-.8,1.92a5,5,0,0,0-1.52,2.16c-.52,1.79.66,3.56,1.41,5.26a25.14,25.14,0,0,1,1.32,4.41c0-.71,1-1,1.65-.67a7.58,7.58,0,0,1,1.54,1.46c.87.84,2,.33,2.94,1,1.18.89,1.93,2.48,3.37,2.72,1.76.3,3-1.57,3.81-3.17,1.93,1,3.12,3.49,5.3,3.65a5.61,5.61,0,0,0,2.43-.56l4.79-1.89a2.28,2.28,0,0,1,3.57,1.62l1,2.52a1.87,1.87,0,0,1,.2,1.08,1.63,1.63,0,0,1-.77.87,8.65,8.65,0,0,1-6.21,1.27,34.82,34.82,0,0,0,1.7,8.51c-1.63-.42-3.51.12-5-.5" style="fill:#F11320;isolation:isolate"></path><path d="M266.44,240a3.23,3.23,0,0,1-2.45,1.26,12.87,12.87,0,0,1-1.73-.33,1.6,1.6,0,0,0-1.58.53c-.41.62,0,1.45.37,2.09a2.47,2.47,0,0,0,1.26,1.25,11.73,11.73,0,0,0,1.33.07c.87.14,1.43,1,2,1.63s1.52,1.26,2.29.83c.5-.28.72-.92,1.21-1.23,1.2-.75,2.67.88,3.75.27,1.28-.73.81-2.82.28-4a10.77,10.77,0,0,0-2.55-3C268,236.87,268.38,237.71,266.44,240Z" style="fill:#F11320;isolation:isolate"></path><path d="M307,273.72c12.78-12.68,20.26-31.15,21.73-48.9,0-.5.08-1,.11-1.48-2.46-2.55-7.38-4.17-8.66.41-.51,0-.61-.34-1-.63-.61-.45-1.46.16-1.8.84-1.11,2.21-1.27,5-4.33,4.38-3.65-.71-1.17-2.27-2.36-4.28a4.09,4.09,0,0,0-.72-.72c-.87-.89-.75-2.31-.58-3.54a1.42,1.42,0,0,0,1.92-.8,2.32,2.32,0,0,1,.28-.84c.42-.49,1.27,0,1.47.58s0,1.28.18,1.9.81,1.24,1.36.91a1.12,1.12,0,0,0,.43-.66,3.49,3.49,0,0,0-.63-3.17,1.4,1.4,0,0,0-.06-2.72c-.89-.19-2.16.33-2.52-.51a2,2,0,0,1-.78,2c-2.36,1.71-7.66.19-7.14,5.21a18,18,0,0,1,.35,2.4,1.87,1.87,0,0,1-1.26,1.87c1.43,1.15.91,3.8,2.45,4.81a2,2,0,0,0,2.38-.26.86.86,0,0,1,.34-.26c.28-.09.54.18.83.24.49.1.93-.41,1.43-.44.71,0,1.1.81,1.23,1.51s.31,1.56,1,1.75c.23.06.48,0,.71.1a1.2,1.2,0,0,1,.78,1.13,3.58,3.58,0,0,1-.32,1.42c-.3.29-.82.11-1.11-.2a9.06,9.06,0,0,0-.78-1c-.19-.14-4.44.19-4.3-.12-.63,1.46-.95,4.66-3.15,3.85-.77-.29-1.57-.82-2.36-.58.38-1,.74-2.07,1.1-3.11-.33-.29-.82.1-1,.51s-.16.9-.5,1.16a1.36,1.36,0,0,1-.87.17l-2.94,0c-1.06,0-2.29,0-2.95.86s-.32,2.4.48,3.3a.79.79,0,0,1,0,1.39,4.4,4.4,0,0,0-1.45,3.72,2.88,2.88,0,0,0,2.87,2.46c.53-.05,1.19-.23,1.5.2.18.26.18.67.46.79s.66-.28.92-.58a1.59,1.59,0,0,1,1.94-.32c.31.19,1.3,3.21,1,3.65-.59,1-3.37.61-4.46.66a1.59,1.59,0,0,0-1.17.37c-.43.5-.08,1.29.4,1.74s1.12.79,1.36,1.4a4.25,4.25,0,0,1-.6,3.28c-.28.23-.63.35-.91.59a2.23,2.23,0,0,0-.45,2.3c.22.8.64,1.53.8,2.34.32,1.73-.63,3.61.06,5.23.33.78,1.36,1.4,2,.85s.55-1.6,1.28-1.68,1.57,1.68,2.15,2,1.38-.18,2.23.43C306.1,272.09,306.24,273.18,307,273.72Z" style="fill:#F11320;isolation:isolate"></path><path d="M198.42,165.41c.72-.92,1.18-2,2.53-2.21,1.84-.32,2.53.71,1.73,2.46a.71.71,0,0,0-.11.49c.12.53.92.22,1.37-.08a3.64,3.64,0,0,1,3.53-.17c.27.11.77-4.93.5-5.51-.92-2-5.17-1.07-4.3-3.28,1.6,0,3.23.17,4.82.29l.27-2.3c-.07.57,2.9.45,3.24.28,1.31-.67.95-3,3.3-2.66,3,.49,3.14,6.33-.24,5.37a15.23,15.23,0,0,0-1.2,5.66l-1.84,0a1.68,1.68,0,0,0-.22,1.49,4.58,4.58,0,0,0,5.07,0c1,.74,2.33,0,3.32-.67,1.39,2.24,5.38,1.93,6.4-.5s-1.52-5.51-4.1-5a5.9,5.9,0,0,0-1.25-3.39,7.67,7.67,0,0,0,7.34-5.09c.52-1.52.64-3.36,1.92-4.33.57-.43,1.29-.61,1.89-1,1.33-.9,1.72-2.65,1.93-4.25q.21-1.61.3-3.21a81.35,81.35,0,0,0-48.18,26.8,3.17,3.17,0,0,0,.12,1.65,3.51,3.51,0,0,0,2.55,1.58c3.9,1,6.39.81,9.09-2.23A2.75,2.75,0,0,0,198.42,165.41Z" style="fill:#F11320;isolation:isolate"></path><g style="opacity:0.4"><path d="M186.82,237.94c-.27,1.51-2.19,2.06-3.74,2.25l-7,.87c-1.1-2.89-4.52-2.91-6.92-1.79A81.31,81.31,0,0,0,241,299.13q4,.33,8,.27a1.37,1.37,0,0,0,.13-.2c1.22-2.13-.54-4-1.48-5.76-.21-.39-2.21-5.43-1.55-5.44a21.89,21.89,0,0,1-6.33-.82.66.66,0,0,1-.4-.24c-.2-.34.27-.66.64-.75,1-.22,1.95-.28,2.89-.56a3.33,3.33,0,0,0,2.24-1.76c.37-.92.09-2,.3-2.94a4,4,0,0,1,2.31-2.62,13,13,0,0,1,3.35-.9c-2.45-1.34-.66-4.12-2.59-6-.62-.59-1.52-1.32-1.14-2.1s1.66-.72,1.82-1.52c.11-.56-.48-1-1-1.15a6.3,6.3,0,0,1-1.67-.36,1.5,1.5,0,0,1-.47-2.09c.42-.59,1.2-.77,1.84-1.11s1.21-1.12.83-1.74a1.2,1.2,0,0,0-.37-.34c-1-.65-2.41-.11-3.42.57s-2,1.54-3.27,1.53a1,1,0,0,1,.4-1.38,1.91,1.91,0,0,0,.49-.26c.29-.29.08-.77-.12-1.13a7.33,7.33,0,0,1-.56-5.58l7.44.14c.06-.56.12-.89.72-1.06-1.67-2-3.48-3.84-5-6a1.46,1.46,0,0,0-.66-.64,4.54,4.54,0,0,0-1,0c-1.07-.15-1.24-1.62-1.13-2.69-.16-.33-.68-.19-.88.11s-.25.69-.49,1a1.35,1.35,0,0,1-1.5.16,3.56,3.56,0,0,1-1.89-4.63,1,1,0,0,1,.4-.52c.43-.24.94.06,1.42.14,1.9.34,1.61-1.75,1.16-2.75-.62-1.34-2.47-2.21-3.81-2.55-1.57-.41-12-2.41-10.32-5.82a1.59,1.59,0,0,1,.81-.68,24.11,24.11,0,0,1,3.2-.61c1-.29,2.06-1.38,1.6-2.37-.18-.4-.56-.67-.77-1.05-.59-1.07.32-2.45-.1-3.59a9.55,9.55,0,0,0-.92-1.39c-.28-.49-.33-1.22.15-1.51s1.27.16,1.84-.1a1,1,0,0,0,0-1.62,1.69,1.69,0,0,0-1.85.14,2.18,2.18,0,0,1-.89.49c-.61.08-1.07-.52-1.38-1.06l-1.49-2.53a1.43,1.43,0,0,0-1.18,1c-.19.52-.23,1.1-.44,1.62-1.06,2.51-4.87,2.21-4.38,5.64a1.64,1.64,0,0,1,1.66,2c-.4,1.22-2.22,1.88-2,3.13.09.44.44.79.51,1.23.19,1.21-1.68,1.66-2.49,1.93-2.67.92-2.85-.83-5.16-.94-1.06,0-2,.67-3.06.79s-1.93-.31-2.91-.25c-2.67.15-1.33,3.78-1.14,5.36-1.44-1-3.36.16-4.5,1.45-1.76,2-1.59,1.63-3.92,1.71a1.72,1.72,0,0,0-1.51.89c-.43,1,.49,2,.52,3.1,0,.52-.19,1-.15,1.53.13,1.35,1.72,1.93,2.68,2.87a3.68,3.68,0,0,1,1,3.24,7.85,7.85,0,0,1-2-.15l-1.21-2.33a4.92,4.92,0,0,0-1.36-1.85,4.44,4.44,0,0,1-1-.78c-.5-.7-.09-1.65,0-2.51.29-2.07-.75-5.55-1.26-7.6s-2-3.05-2.52-5.07a.64.64,0,0,0-.91-.29,1.38,1.38,0,0,0-.57.91,3.72,3.72,0,0,0,.22,2.5c-.47-1-3,1.66-3.2,2.17-.26.84.3,2,.27,2.89-.05,2.16-.57,3.36-2.79,1.78-.85-.6-1.94-1.32-2.84-.79a1.35,1.35,0,0,1-.75,1.52,2.87,2.87,0,0,1-1.81.14,1.78,1.78,0,0,1-1.09-.54,3,3,0,0,0-.4-.52c-.57-.45-1.29.32-1.6,1" style="fill:#fff;isolation:isolate"></path><path d="M285,174c.45.71,0,1.62-.54,2.28s-1.11,1.44-.89,2.24l2.9.27a.51.51,0,0,1,.57.71c-.07.62-.15,1.24-.22,1.86-.61.48-1.2-1-2-.87-.33.07-.5.43-.69.71-1.56,2.46-4.3.62-5.76-.66-1.7-1.48-4.16-1.57-6.41-1.6a3,3,0,0,0-2.28.6c-.56.56-.59,1.44-.87,2.19-.49,1.3-1.73,2.15-2.44,3.34-2.46,4.17,2,7.38,5.73,6.24,1.95-.58,1.61-.93,3.6-.35.83.24,1.85,0,2.36,1a1.55,1.55,0,0,1-1.35,2.26,6.56,6.56,0,0,1-3.21-.37c.38,1.32,0,2.82-.14,4.22a1.84,1.84,0,0,0-2,2.46c.63,0,1.49.25,1.44.88a1.22,1.22,0,0,1-.22.51,20.91,20.91,0,0,0-1.39,1.86c-.59,1-.58,4.15-2.07,4.52-.26.07-.54,0-.8.13a1.19,1.19,0,0,0-.73,1.39,1.64,1.64,0,0,0,1.18,1.14c.37.1.77.09,1.13.21,1.92.67.23,2.57.69,3.51a17.32,17.32,0,0,0,3.84,2.55,4.55,4.55,0,0,0-2.17,3.42c0,1.56,1.15,2.32,2.63,2.79s3.48.65,4.61,1.09c.61.23,1.35.45,1.86.05s.5-1.7,1.24-2.05a2.16,2.16,0,0,1,.76-.12,2.87,2.87,0,0,0,2.45-3.23c.35-.45,1-.41,1.61-.39s1.3-.18,1.38-.75-.74-1-1.4-1a7.16,7.16,0,0,0-2,.16,2.33,2.33,0,0,1-1.47.06,2,2,0,0,1-.78-.81,4.42,4.42,0,0,1-.82-2.58,1.89,1.89,0,0,1,1.73-1.79,3.64,3.64,0,0,0,.73.05c.63-.1.9-.87.86-1.5a5.69,5.69,0,0,1-.08-1.88c.17-.61,1-1.06,1.44-.59.35-.8.58-2-.21-2.37a2.3,2.3,0,0,0-.83-.14c-1.74-.17-4.09-2.52-2.15-3.86,1.27-.88,3.32,1,4.43-.71.54-.8.21-2,.76-2.75.32-.23.7.24.77.64a3.72,3.72,0,0,1-1.21,3.42c1,.57,2.52-.08,3.19.83s-.32,2.48.55,3.18a1.73,1.73,0,0,0,.89.31c1.57.23,4.49,0,4.58,2.2a3.64,3.64,0,0,0,.05.81c.24.79,1.32.87,2.14.78.42-.8-.13-1.74-.5-2.58s-.33-2.11.55-2.32c.64-.15,1.38.4,1.91,0,.25-.17.36-.5.63-.64.65-.34,1.19.65,1.89.87,1,.31,1.69-1,1.69-2s-.25-2.15.4-2.92c.21-.24.49-.41.72-.63a4.21,4.21,0,0,0,.94-2.73c.16-1.56,6.33,2.49,6.72,2.55,3,.5,4.78-2.44,6.81-4.05a18.16,18.16,0,0,1,3.54-2,82,82,0,0,0-58.85-55,26.52,26.52,0,0,0-3.78-.73c.38,1.89,1.55,4.87.28,6.66-1.61,2.28-5,.29-6.27,3,0,.68,1.1.57,1.62,1a2.42,2.42,0,0,1,.51,1c.15.35.49.7.85.59.42.63-.24,1.41-.8,1.92a5,5,0,0,0-1.52,2.16c-.52,1.79.66,3.56,1.41,5.26a25.14,25.14,0,0,1,1.32,4.41c0-.71,1-1,1.65-.67a7.58,7.58,0,0,1,1.54,1.46c.87.84,2,.33,2.94,1,1.18.89,1.93,2.48,3.37,2.72,1.76.3,3-1.57,3.81-3.17,1.93,1,3.12,3.49,5.3,3.65a5.61,5.61,0,0,0,2.43-.56l4.79-1.89a2.28,2.28,0,0,1,3.57,1.62l1,2.52a1.87,1.87,0,0,1,.2,1.08,1.63,1.63,0,0,1-.77.87,8.65,8.65,0,0,1-6.21,1.27,34.82,34.82,0,0,0,1.7,8.51c-1.63-.42-3.51.12-5-.5" style="fill:#fff;isolation:isolate"></path><path d="M266.44,240a3.23,3.23,0,0,1-2.45,1.26,12.87,12.87,0,0,1-1.73-.33,1.6,1.6,0,0,0-1.58.53c-.41.62,0,1.45.37,2.09a2.47,2.47,0,0,0,1.26,1.25,11.73,11.73,0,0,0,1.33.07c.87.14,1.43,1,2,1.63s1.52,1.26,2.29.83c.5-.28.72-.92,1.21-1.23,1.2-.75,2.67.88,3.75.27,1.28-.73.81-2.82.28-4a10.77,10.77,0,0,0-2.55-3C268,236.87,268.38,237.71,266.44,240Z" style="fill:#fff;isolation:isolate"></path><path d="M307,273.72c12.78-12.68,20.26-31.15,21.73-48.9,0-.5.08-1,.11-1.48-2.46-2.55-7.38-4.17-8.66.41-.51,0-.61-.34-1-.63-.61-.45-1.46.16-1.8.84-1.11,2.21-1.27,5-4.33,4.38-3.65-.71-1.17-2.27-2.36-4.28a4.09,4.09,0,0,0-.72-.72c-.87-.89-.75-2.31-.58-3.54a1.42,1.42,0,0,0,1.92-.8,2.32,2.32,0,0,1,.28-.84c.42-.49,1.27,0,1.47.58s0,1.28.18,1.9.81,1.24,1.36.91a1.12,1.12,0,0,0,.43-.66,3.49,3.49,0,0,0-.63-3.17,1.4,1.4,0,0,0-.06-2.72c-.89-.19-2.16.33-2.52-.51a2,2,0,0,1-.78,2c-2.36,1.71-7.66.19-7.14,5.21a18,18,0,0,1,.35,2.4,1.87,1.87,0,0,1-1.26,1.87c1.43,1.15.91,3.8,2.45,4.81a2,2,0,0,0,2.38-.26.86.86,0,0,1,.34-.26c.28-.09.54.18.83.24.49.1.93-.41,1.43-.44.71,0,1.1.81,1.23,1.51s.31,1.56,1,1.75c.23.06.48,0,.71.1a1.2,1.2,0,0,1,.78,1.13,3.58,3.58,0,0,1-.32,1.42c-.3.29-.82.11-1.11-.2a9.06,9.06,0,0,0-.78-1c-.19-.14-4.44.19-4.3-.12-.63,1.46-.95,4.66-3.15,3.85-.77-.29-1.57-.82-2.36-.58.38-1,.74-2.07,1.1-3.11-.33-.29-.82.1-1,.51s-.16.9-.5,1.16a1.36,1.36,0,0,1-.87.17l-2.94,0c-1.06,0-2.29,0-2.95.86s-.32,2.4.48,3.3a.79.79,0,0,1,0,1.39,4.4,4.4,0,0,0-1.45,3.72,2.88,2.88,0,0,0,2.87,2.46c.53-.05,1.19-.23,1.5.2.18.26.18.67.46.79s.66-.28.92-.58a1.59,1.59,0,0,1,1.94-.32c.31.19,1.3,3.21,1,3.65-.59,1-3.37.61-4.46.66a1.59,1.59,0,0,0-1.17.37c-.43.5-.08,1.29.4,1.74s1.12.79,1.36,1.4a4.25,4.25,0,0,1-.6,3.28c-.28.23-.63.35-.91.59a2.23,2.23,0,0,0-.45,2.3c.22.8.64,1.53.8,2.34.32,1.73-.63,3.61.06,5.23.33.78,1.36,1.4,2,.85s.55-1.6,1.28-1.68,1.57,1.68,2.15,2,1.38-.18,2.23.43C306.1,272.09,306.24,273.18,307,273.72Z" style="fill:#fff;isolation:isolate"></path><path d="M198.42,165.41c.72-.92,1.18-2,2.53-2.21,1.84-.32,2.53.71,1.73,2.46a.71.71,0,0,0-.11.49c.12.53.92.22,1.37-.08a3.64,3.64,0,0,1,3.53-.17c.27.11.77-4.93.5-5.51-.92-2-5.17-1.07-4.3-3.28,1.6,0,3.23.17,4.82.29l.27-2.3c-.07.57,2.9.45,3.24.28,1.31-.67.95-3,3.3-2.66,3,.49,3.14,6.33-.24,5.37a15.23,15.23,0,0,0-1.2,5.66l-1.84,0a1.68,1.68,0,0,0-.22,1.49,4.58,4.58,0,0,0,5.07,0c1,.74,2.33,0,3.32-.67,1.39,2.24,5.38,1.93,6.4-.5s-1.52-5.51-4.1-5a5.9,5.9,0,0,0-1.25-3.39,7.67,7.67,0,0,0,7.34-5.09c.52-1.52.64-3.36,1.92-4.33.57-.43,1.29-.61,1.89-1,1.33-.9,1.72-2.65,1.93-4.25q.21-1.61.3-3.21a81.35,81.35,0,0,0-48.18,26.8,3.17,3.17,0,0,0,.12,1.65,3.51,3.51,0,0,0,2.55,1.58c3.9,1,6.39.81,9.09-2.23A2.75,2.75,0,0,0,198.42,165.41Z" style="fill:#fff;isolation:isolate"></path></g></g><g id="freepik--Connections--inject-72"><path d="M50.23,133.29a11.92,11.92,0,1,0,11.91-11.91A11.9,11.9,0,0,0,50.23,133.29Z" style="fill:#F11320"></path><circle cx="62.14" cy="133.29" r="11.23" transform="translate(-20.55 11.68) rotate(-9.22)" style="fill:#fff;opacity:0.30000000000000004"></circle><path d="M55.47,133.1a1.8,1.8,0,0,0,1.38,1.66,2.55,2.55,0,0,0,0,1.67c.33.91,2.17.91,2.17.91a.93.93,0,0,0,.83.56c0,.06.09.1.12.15l.26.36c.23,1.81.19,3.71-.7,4.68a0,0,0,0,1,0,0c-.77.08-1.54.19-2.31.31-.37.05-.73.12-1.09.19a11.9,11.9,0,0,0,13.28-.94H68.34c-.62,0-1.33,0-2.09,0l0-.05a2.4,2.4,0,0,1-2.16-1.58,3.55,3.55,0,0,1-.15-1.23,4.43,4.43,0,0,0,1-.33,4.05,4.05,0,0,0,2-2.22,2.83,2.83,0,0,0,.14-.41,10.43,10.43,0,0,0,.26-3.55,1.68,1.68,0,0,0,.81-1.14,1.23,1.23,0,0,0-.84-1.5A1.59,1.59,0,0,0,68.52,129a1.27,1.27,0,0,0-1.22-1.48s.43-.62-.41-1.79a1.5,1.5,0,0,0-2-.45,2.35,2.35,0,0,0-2.34-1,2.52,2.52,0,0,0-1.82,1.2s0-.86-1.65-.38a2.23,2.23,0,0,0-1.45,2.37,1.21,1.21,0,0,0-1.68.63c-.57,1.19.67,3.27.67,3.27A1.63,1.63,0,0,0,55.47,133.1Z" style="fill:#F11320"></path><path d="M50.23,133.29a11.92,11.92,0,1,0,11.91-11.91A11.9,11.9,0,0,0,50.23,133.29Z" style="fill:#fff;opacity:0.7000000000000001"></path><circle cx="56.11" cy="342.48" r="10.59" style="fill:#F11320"></circle><path d="M66.1,342.48a10,10,0,1,1-10-10A9.92,9.92,0,0,1,66.1,342.48Z" style="fill:#fff;opacity:0.30000000000000004"></path><path d="M64,348.6a10,10,0,0,1-13.51,2.13c.33-.76.54-1.22.54-1.22a29.65,29.65,0,0,1,3.8-.93,3,3,0,0,1,1.31-.65,3.84,3.84,0,0,0-.07-2.27,3.92,3.92,0,0,1-1-1,2.46,2.46,0,0,1-.54-.53c-.31-.13-2.43-1.12-2.54-4.6a3,3,0,0,1,0-.42c-.66-.07-1.35.14-.87,1.48.82,2.31,0,3.52,0,3.52a8.68,8.68,0,0,0-.08-1.53c0,2.39-1.29,2.54-1.29,2.54s.82-.86-.39-3.51-.86-6.26,1.45-6.41a3,3,0,0,1,2.55,1.07,3.85,3.85,0,0,1,4.52-.53s2.07-.5,2.66,0c.12.12,0,.39-.22.75a2.74,2.74,0,0,1,1.16,1.71,4.15,4.15,0,0,1-.57,3.25c.28,2.62-.17,4.59-2.26,4.77,0,.07,0,.13,0,.2s0,.18,0,.26a2.92,2.92,0,0,0,.15,1.12,5.84,5.84,0,0,1,.87.24c1.87,0,4,.2,4,.2h0A2.93,2.93,0,0,1,64,348.6Z" style="fill:#F11320"></path><circle cx="56.11" cy="342.48" r="10.59" style="fill:#fff;opacity:0.7000000000000001"></circle><circle cx="443.89" cy="259.76" r="11.69" transform="translate(-53.67 389.96) rotate(-45)" style="fill:#F11320"></circle><path d="M454.91,259.76a11,11,0,1,1-11-11A11,11,0,0,1,454.91,259.76Z" style="fill:#fff;opacity:0.30000000000000004"></path><path d="M453.06,265.87a11,11,0,0,1-15.92,2.6,6.59,6.59,0,0,1,.06-1.81c.14-1.34,1.69-2.43,1.67-3.37s-1.6-2.16-.59-2.71,1.23-2.64.42-3.81a2.57,2.57,0,0,1,.06-3.58,4.68,4.68,0,0,1,3-1.64,5.61,5.61,0,0,1,3.26-.47,7,7,0,0,1,3.24,1.1,4.8,4.8,0,0,1,1.69,2.08,6.55,6.55,0,0,1,.34,4.77c-.55,1.58,1.9,1.49,2,2.93s-1.15,1.53-.93,2.5C451.43,264.9,452.28,265.32,453.06,265.87Z" style="fill:#F11320"></path><circle cx="443.89" cy="259.76" r="11.69" transform="translate(-53.67 389.96) rotate(-45)" style="fill:#fff;opacity:0.7000000000000001"></circle><rect x="300.29" y="162.47" width="97.22" height="1" transform="translate(-36.04 152.22) rotate(-23.44)" style="fill:#F11320"></rect><rect x="199.61" y="86.85" width="1" height="72.46" transform="translate(-34.82 123.75) rotate(-31.76)" style="fill:#F11320"></rect><rect x="93.46" y="266.39" width="101.09" height="1" transform="translate(-51.67 35.2) rotate(-11.83)" style="fill:#F11320"></rect><rect x="300.29" y="162.47" width="97.22" height="1" transform="translate(-36.04 152.22) rotate(-23.44)" style="fill:#fff;opacity:0.8"></rect><rect x="343.69" y="232.29" width="1" height="107.23" transform="translate(-99.27 226.36) rotate(-32.07)" style="fill:#F11320"></rect><rect x="343.69" y="232.29" width="1" height="107.23" transform="translate(-99.27 226.36) rotate(-32.07)" style="fill:#fff;opacity:0.8"></rect><rect x="199.61" y="86.85" width="1" height="72.46" transform="translate(-34.82 123.75) rotate(-31.76)" style="fill:#fff;opacity:0.8"></rect><rect x="93.46" y="266.39" width="101.09" height="1" transform="translate(-51.67 35.2) rotate(-11.83)" style="fill:#fff;opacity:0.8"></rect><path d="M190.88,368.49,94,277.42l13.7-103.58.11-.12,73-81.92.19,0,132.27-18.3,80.77,70,0,.26L373.12,331.75l-.36.07ZM95.06,277.05l96.13,90.36,181-36.5L393,143.84l-80-69.3L181.3,92.74l-72.65,81.53Z" style="fill:#F11320"></path><path d="M190.88,368.49,94,277.42l13.7-103.58.11-.12,73-81.92.19,0,132.27-18.3,80.77,70,0,.26L373.12,331.75l-.36.07ZM95.06,277.05l96.13,90.36,181-36.5L393,143.84l-80-69.3L181.3,92.74l-72.65,81.53Z" style="fill:#fff;opacity:0.8"></path><polygon points="220.68 153.88 219.18 162.64 217.68 153.88 220.68 153.88" style="fill:#F11320"></polygon><path d="M223.52,153.88a4.34,4.34,0,1,1-4.34-4.34A4.34,4.34,0,0,1,223.52,153.88Z" style="fill:#F11320"></path><path d="M219.61,150.82c.48.63.1,1.74-.86,2.46s-2.11.8-2.6.17-.1-1.74.85-2.46S219.12,150.19,219.61,150.82Z" style="fill:#fff;opacity:0.30000000000000004"></path><polygon points="305.8 182.31 304.3 191.07 302.8 182.31 305.8 182.31" style="fill:#F11320"></polygon><circle cx="304.3" cy="182.31" r="4.34" style="fill:#F11320"></circle><path d="M304.72,179.25c.49.63.1,1.74-.85,2.46s-2.12.8-2.6.17-.1-1.74.85-2.46S304.24,178.61,304.72,179.25Z" style="fill:#fff;opacity:0.30000000000000004"></path><polygon points="194.98 256.02 193.48 264.78 191.98 256.02 194.98 256.02" style="fill:#F11320"></polygon><circle cx="193.48" cy="256.02" r="4.34" style="fill:#F11320"></circle><path d="M193.91,253c.48.63.1,1.74-.85,2.46s-2.12.81-2.61.17-.1-1.74.86-2.46S193.42,252.33,193.91,253Z" style="fill:#fff;opacity:0.30000000000000004"></path><polygon points="317.23 240.47 315.73 249.22 314.23 240.47 317.23 240.47" style="fill:#F11320"></polygon><path d="M320.07,240.47a4.34,4.34,0,1,1-4.34-4.35A4.34,4.34,0,0,1,320.07,240.47Z" style="fill:#F11320"></path><path d="M316.15,237.4c.49.64.11,1.74-.85,2.47s-2.12.8-2.6.17-.1-1.74.85-2.47S315.67,236.77,316.15,237.4Z" style="fill:#fff;opacity:0.30000000000000004"></path><circle cx="312.1" cy="76.01" r="18.2" style="fill:#F11320"></circle><path d="M329.25,76A17.16,17.16,0,1,1,312.1,58.85,17.1,17.1,0,0,1,329.25,76Z" style="fill:#fff;opacity:0.30000000000000004"></path><path d="M324.67,87.68a17.15,17.15,0,0,1-25.8-.74l.28-.09A3.68,3.68,0,0,1,300,86a.71.71,0,0,1,0-.14l.3,0a3.53,3.53,0,0,1,1.88-.49,3.44,3.44,0,0,1,.55,0l1.07-.2s0,.11,0,.3l5.78.39a3,3,0,0,0,1.06-1.5,5.19,5.19,0,0,0,.21-2,6.11,6.11,0,0,1-2.4-.63,6.21,6.21,0,0,1-3-3.38,6.13,6.13,0,0,1-.18-.61,15.45,15.45,0,0,1-.09-6.48v0H305a.18.18,0,0,1-.15-.19s0,0,0,0a.2.2,0,0,1,.23-.17h.05a13,13,0,0,1,.29-3.87,4.6,4.6,0,0,1,0-3.92c.64-.92.14-.42,1.82-.57s.67-1.63,1.74-1.65.85.66,2.16,1.16.83-1,2.33-1.14,1.7,1,2.77,1.28a5.1,5.1,0,0,0,2.07,0c.78,0,.85,2.28,1.18,2.7s.89-.21,1.6,1a1.08,1.08,0,0,1,.12.56c0,1.51-1.88,4.38-1.88,4.38-.09.66-.21,1.37-.39,2.13a1.94,1.94,0,0,1,.34,2.26,4.17,4.17,0,0,1-1.66,1.77,12.27,12.27,0,0,1-1.08,1.89c-.47,2.62-.7,5.71.19,7.66A58.15,58.15,0,0,1,324.67,87.68Z" style="fill:#F11320"></path><circle cx="312.1" cy="76.01" r="18.2" style="fill:#fff;opacity:0.5"></circle><circle cx="191.03" cy="366.36" r="18.2" transform="translate(-203.11 242.38) rotate(-45)" style="fill:#F11320"></circle><path d="M208.19,366.36A17.16,17.16,0,1,1,191,349.21,17.07,17.07,0,0,1,208.19,366.36Z" style="fill:#fff;opacity:0.2"></path><path d="M202.82,378.82a17.15,17.15,0,0,1-21.5,1.69c1.25-.18,2.56-.33,3.89-.47,1-2.25.77-5.82.22-8.85A14.58,14.58,0,0,1,184.2,369a4.73,4.73,0,0,1-1.92-2,2.27,2.27,0,0,1,.38-2.62,20,20,0,0,1-.55-4.13l-.08,0s-1.38-5.33,3.78-7.28,10.37,1.54,10.37,1.54,1.12-2.08,2.45-1.54c1.14.46.53,1.94.32,2.39a2.78,2.78,0,0,1,1.17-1c.91-.41,2.17.75-.66,3.58a3.7,3.7,0,0,1-1,.72,13.75,13.75,0,0,1,.08,3.87,17.79,17.79,0,0,1-.11,7.47,5.48,5.48,0,0,1-.22.72,7,7,0,0,1-3.42,3.89,6.57,6.57,0,0,1-2.77.74,6.56,6.56,0,0,0,.23,2.28,3.56,3.56,0,0,0,1.23,1.73c2.73-.18,5.11-.32,6.68-.45a3.18,3.18,0,0,0,0-.34l1.24.23A5,5,0,0,1,202.82,378.82Z" style="fill:#F11320"></path><circle cx="191.03" cy="366.36" r="18.2" transform="translate(-203.11 242.38) rotate(-45)" style="fill:#fff;opacity:0.5"></circle><circle cx="108.18" cy="174.05" r="18.2" transform="translate(-86.07 239.35) rotate(-76.72)" style="fill:#F11320"></circle><path d="M125.34,174.05a17.16,17.16,0,1,1-17.16-17.15A17.1,17.1,0,0,1,125.34,174.05Z" style="fill:#fff;opacity:0.2"></path><path d="M121,185.48a17.17,17.17,0,0,1-22.9,2.45l6.8-2.1c.13.14.25.3.38.47l.87-.17c.55-.1,1.09-.17,1.64-.26a5.09,5.09,0,0,0,.68-2.1l-.94,0c.19-.68-.82-2.09-.82-2.09l-.34,1.86a3.6,3.6,0,0,1-1.14-.4c-.46-.29-1-2.32-1-2.32s-1.18,2-1.44,2.43-.94,0-.94,0a6.92,6.92,0,0,1,.11-3.47,1.18,1.18,0,0,0-1.2-1.72,6.15,6.15,0,0,1-.45,1.94,6,6,0,0,0-.46,2.54c0,.72.06,1.23-.45,1.23s-.58-.46-.52-1.23-.74-1.51-.28-2.14.11-2.34.11-2.34c-.28,1.2-1.6,1.14-1.82,2s.62,2.06.22,2.49-1.08,0-1.08,0,.57-.94.17-1.49-1-.82-.75-1.94.8-1.11.64-2.34-.75-1.17,0-1.63a6.08,6.08,0,0,0,1.71-3.56c0-1-.4-3.11,1.2-3.87s2-1.35,1.71-3.37,1.25-1.87,3.2-1.47c0,0,1-1.54,1.88-1.25s1.6.11,1.79-.4,2.72-.46,3.1,0a2.73,2.73,0,0,0,2.55.45c.83-.34,3,1,3,1.94s-.06,1.43,1.12,1.95,1.4.8,1.91,2.84-.34,2.87.69,3.66.91,3.94,1,4.92,0,2,0,2l-.29.08c-.28.08-.51-1.05-.46-1.89s-1.73-2-1.88-2.07c0,.08.36.78.57,1.33a9.87,9.87,0,0,1,.23,3.06c-.06,1,1.08,1.51,1.08,1.51l-1.25.63s-1-2.08-.64-3.16a2.29,2.29,0,0,0-.62-2v2s-.34.74-.85,1.71.4,1.26.54,1.77-1.12.54-1.12.54l-.24-1.23-.43,1.23a6.48,6.48,0,0,1-2.47.76,4.18,4.18,0,0,0,.5,1.95l1.22-.06c.8,0,1.64,0,2.45,0h0C118.6,185.32,120,185.41,121,185.48Z" style="fill:#F11320"></path><circle cx="108.18" cy="174.05" r="18.2" transform="translate(-86.07 239.35) rotate(-76.72)" style="fill:#fff;opacity:0.5"></circle></g><g id="freepik--speech-bubble--inject-72"><rect x="251.05" y="138.49" width="21.1" height="21.1" rx="3.69" transform="translate(7.42 -12.33) rotate(2.74)" style="fill:#F11320"></rect><path d="M267.6,145.17c-1.37-2.48-4.26-1.69-5.82.12-1.38-1.95-4.18-3-5.78-.67-2.71,3.95,2.28,8,4.65,9.57l.68.46.72-.39C264.56,152.9,269.91,149.37,267.6,145.17Z" style="fill:#fff;opacity:0.6000000000000001;isolation:isolate"></path><path d="M263.44,158.06s-3.07,6.19-9.36,7.87c0,0,3.52-1.81,3.57-8.41Z" style="fill:#F11320"></path></g></svg>
