<?xml version="1.0" encoding="UTF-8" standalone="no"?>
<svg xmlns:dc="http://purl.org/dc/elements/1.1/" xmlns:cc="http://creativecommons.org/ns#"
  xmlns:rdf="http://www.w3.org/1999/02/22-rdf-syntax-ns#" xmlns:svg="http://www.w3.org/2000/svg"
  xmlns="http://www.w3.org/2000/svg" viewBox="0 0 750 750" height="750" width="750" xml:space="preserve" id="svg2"
  version="1.1">
  <metadata id="metadata8">
    <rdf:RDF>
      <cc:Work rdf:about="">
        <dc:format>image/svg+xml</dc:format>
        <dc:type rdf:resource="http://purl.org/dc/dcmitype/StillImage" />
      </cc:Work>
    </rdf:RDF>
  </metadata>
  <defs id="defs6">
    <clipPath id="clipPath22" clipPathUnits="userSpaceOnUse">
      <path id="path20" d="M 0,1080 H 1080 V 0 H 0 Z" />
    </clipPath>
  </defs>
  <g transform="matrix(2 ,0,0,-2 ,0,1440)" id="g10">
    
    <g id="g16">
      <g clip-path="url(#clipPath22)" id="g18">
        <!-- start of square text -->
        <g transform="translate(194.6866,540.9212)" id="g24">
          <path id="path26" style="fill:#f11420;fill-opacity:1;fill-rule:nonzero;stroke:none"
            d="m 0,0 v 26.366 h 5.695 v -3.165 c 2.987,1.934 5.975,3.182 8.964,3.746 v -5.75 C 11.635,20.601 9.052,19.827 6.908,18.879 L 5.747,18.404 V 0 Z" />
        </g>
        <g transform="translate(174.1209,572.1381)" id="g12">
          <path id="path14" style="fill:#f11420;fill-opacity:1;fill-rule:nonzero;stroke:none"
            d="M 0,0 -4.482,-18.297 H 7.065 L 2.636,0 Z M -13.446,-31.217 -4.535,4.904 H 7.118 l 8.964,-36.121 h -5.905 l -1.951,7.751 H -5.642 l -1.952,-7.751 z" />
        </g>
        <g transform="translate(221.4215,552.6278)" id="g28">
          <path id="path30" style="fill:#f11420;fill-opacity:1;fill-rule:nonzero;stroke:none"
            d="m 0,0 c -2.426,-0.21 -3.639,-1.53 -3.639,-3.955 0,-2.426 1.071,-3.639 3.217,-3.639 1.757,0 3.619,0.282 5.588,0.844 l 0.951,0.317 V 0.579 Z M 11.812,6.538 V -5.483 c 0.035,-0.774 0.237,-1.345 0.606,-1.714 0.369,-0.37 0.939,-0.607 1.712,-0.712 l -0.157,-4.377 c -3.024,0 -5.361,0.649 -7.013,1.952 -2.812,-1.303 -5.642,-1.952 -8.49,-1.952 -5.238,0 -7.858,2.795 -7.858,8.383 0,2.673 0.714,4.607 2.136,5.802 1.425,1.193 3.613,1.914 6.566,2.161 l 6.803,0.579 v 1.899 c 0,1.406 -0.309,2.391 -0.924,2.953 -0.616,0.564 -1.521,0.845 -2.715,0.845 -2.251,0 -5.063,-0.142 -8.437,-0.423 l -1.687,-0.105 -0.212,4.06 c 3.831,0.913 7.357,1.372 10.573,1.372 3.217,0 5.536,-0.696 6.96,-2.083 1.423,-1.39 2.137,-3.596 2.137,-6.619" />
        </g>
        <g transform="translate(250.104,545.4557)" id="g32">
          <path id="path34" style="fill:#f11420;fill-opacity:1;fill-rule:nonzero;stroke:none"
            d="m 0,0 c 2.812,0 4.684,0.661 5.617,1.979 0.931,1.317 1.398,3.558 1.398,6.723 0,3.164 -0.397,5.386 -1.188,6.67 -0.791,1.283 -2.082,1.925 -3.876,1.925 -1.687,0 -3.374,-0.265 -5.061,-0.792 L -3.953,16.241 V 0.212 C -2.021,0.07 -0.704,0 0,0 m 2.638,22.412 c 3.621,0 6.229,-1.012 7.831,-3.032 1.599,-2.023 2.398,-5.6 2.398,-10.731 0,-5.133 -0.949,-8.709 -2.847,-10.731 C 8.121,-4.103 4.781,-5.114 0,-5.114 c -1.652,0 -4.27,0.158 -7.856,0.474 l -1.792,0.158 v 37.281 h 5.695 V 20.83 c 2.425,1.054 4.622,1.582 6.591,1.582" />
        </g>
        <g transform="translate(290.6038,540.9212)" id="g36">
          <path id="path38" style="fill:#f11420;fill-opacity:1;fill-rule:nonzero;stroke:none"
            d="M 0,0 V 15.609 H -15.608 V 0 h -5.854 v 36.121 h 5.854 V 20.723 H 0 V 36.121 H 5.907 V 0 Z" />
        </g>
        <g transform="translate(311.8012,552.6278)" id="g40">
          <path id="path42" style="fill:#f11420;fill-opacity:1;fill-rule:nonzero;stroke:none"
            d="m 0,0 c -2.426,-0.21 -3.639,-1.53 -3.639,-3.955 0,-2.426 1.071,-3.639 3.217,-3.639 1.757,0 3.619,0.282 5.588,0.844 l 0.951,0.317 V 0.579 Z M 11.812,6.538 V -5.483 c 0.035,-0.774 0.237,-1.345 0.606,-1.714 0.369,-0.37 0.939,-0.607 1.712,-0.712 l -0.157,-4.377 c -3.024,0 -5.361,0.649 -7.013,1.952 -2.812,-1.303 -5.642,-1.952 -8.49,-1.952 -5.238,0 -7.858,2.795 -7.858,8.383 0,2.673 0.713,4.607 2.136,5.802 1.425,1.193 3.613,1.914 6.566,2.161 l 6.803,0.579 v 1.899 c 0,1.406 -0.309,2.391 -0.924,2.953 -0.616,0.564 -1.521,0.845 -2.715,0.845 -2.251,0 -5.063,-0.142 -8.437,-0.423 l -1.687,-0.105 -0.212,4.06 c 3.831,0.913 7.357,1.372 10.573,1.372 3.217,0 5.536,-0.696 6.96,-2.083 1.423,-1.39 2.137,-3.596 2.137,-6.619" />
        </g>
        <g transform="translate(330.8373,540.9212)" id="g44">
          <path id="path46" style="fill:#f11420;fill-opacity:1;fill-rule:nonzero;stroke:none"
            d="m 0,0 v 26.366 h 5.695 v -3.165 c 2.987,1.934 5.975,3.182 8.964,3.746 v -5.75 C 11.635,20.601 9.052,19.827 6.908,18.879 L 5.747,18.404 V 0 Z" />
        </g>
        <g transform="translate(364.478,546.4062)" id="g48">
          <path id="path50" style="fill:#f11420;fill-opacity:1;fill-rule:nonzero;stroke:none"
            d="m 0,0 0.896,0.369 v 15.608 c -2.109,0.352 -4.06,0.527 -5.852,0.527 -3.551,0 -5.326,-2.953 -5.326,-8.858 0,-3.236 0.412,-5.477 1.238,-6.723 0.826,-1.25 2.136,-1.873 3.93,-1.873 1.792,0 3.497,0.316 5.114,0.95 M 6.645,31.849 V -5.485 H 0.95 v 1.372 c -2.567,-1.302 -4.923,-1.951 -7.067,-1.951 -3.446,0 -5.967,1.036 -7.566,3.11 -1.6,2.074 -2.399,5.555 -2.399,10.441 0,4.886 0.887,8.437 2.663,10.651 1.775,2.216 4.542,3.324 8.305,3.324 1.266,0 3.269,-0.23 6.01,-0.686 v 11.073 z" />
        </g>
        <g transform="translate(376.0291,567.2868)" id="g52">
          <path id="path54" style="fill:#f11420;fill-opacity:1;fill-rule:nonzero;stroke:none"
            d="m 0,0 h 5.64 l 4.168,-21.462 h 1.053 l 5.011,20.935 h 5.905 l 5.01,-20.935 h 1.054 L 31.954,0 h 5.694 L 32.06,-26.366 H 22.937 L 18.824,-8.278 14.711,-26.366 H 5.588 Z" />
        </g>
        <g transform="translate(426.2802,552.6278)" id="g56">
          <path id="path58" style="fill:#f11420;fill-opacity:1;fill-rule:nonzero;stroke:none"
            d="m 0,0 c -2.426,-0.21 -3.639,-1.53 -3.639,-3.955 0,-2.426 1.071,-3.639 3.217,-3.639 1.757,0 3.619,0.282 5.588,0.844 l 0.951,0.317 V 0.579 Z M 11.812,6.538 V -5.483 c 0.035,-0.774 0.237,-1.345 0.606,-1.714 0.369,-0.37 0.939,-0.607 1.712,-0.712 l -0.157,-4.377 c -3.024,0 -5.361,0.649 -7.013,1.952 -2.812,-1.303 -5.642,-1.952 -8.49,-1.952 -5.238,0 -7.858,2.795 -7.858,8.383 0,2.673 0.714,4.607 2.136,5.802 1.425,1.193 3.613,1.914 6.566,2.161 l 6.803,0.579 v 1.899 c 0,1.406 -0.309,2.391 -0.924,2.953 -0.616,0.564 -1.521,0.845 -2.715,0.845 -2.251,0 -5.063,-0.142 -8.437,-0.423 l -1.687,-0.105 -0.212,4.06 c 3.831,0.913 7.357,1.372 10.573,1.372 3.217,0 5.536,-0.696 6.96,-2.083 1.423,-1.39 2.137,-3.596 2.137,-6.619" />
        </g>
        <g transform="translate(445.3163,540.9212)" id="g60">
          <path id="path62" style="fill:#f11420;fill-opacity:1;fill-rule:nonzero;stroke:none"
            d="m 0,0 v 26.366 h 5.695 v -3.165 c 2.987,1.934 5.975,3.182 8.964,3.746 v -5.75 C 11.635,20.601 9.052,19.827 6.908,18.879 L 5.747,18.404 V 0 Z" />
        </g>
        <g transform="translate(479.748,556.1089)" id="g64">
          <path id="path66" style="fill:#f11420;fill-opacity:1;fill-rule:nonzero;stroke:none"
            d="M 0,0 C 0,2.601 -0.414,4.42 -1.238,5.458 -2.066,6.494 -3.464,7.013 -5.431,7.013 -7.399,7.013 -8.832,6.466 -9.728,5.378 -10.626,4.288 -11.092,2.496 -11.125,0 Z m 3.164,-10.441 1.477,0.157 0.105,-4.27 c -4.007,-0.809 -7.558,-1.213 -10.651,-1.213 -3.903,0 -6.707,1.071 -8.412,3.217 -1.704,2.144 -2.558,5.57 -2.558,10.282 0,9.351 3.816,14.027 11.444,14.027 7.382,0 11.073,-4.027 11.073,-12.076 L 5.273,-4.43 h -16.346 c 0.035,-2.18 0.509,-3.78 1.423,-4.798 0.913,-1.021 2.618,-1.53 5.115,-1.53 2.496,0 5.062,0.105 7.699,0.317" />
        </g>
        <g transform="translate(182.3386,603.8254)" id="g68">
          <path id="path70" style="fill:#f11420;fill-opacity:1;fill-rule:nonzero;stroke:none"
            d="M 0,0 H -6.964 C -7.053,-4.777 -8,-8.587 -9.804,-11.427 c -1.802,-2.839 -4.733,-5.16 -8.789,-6.964 l -3.11,7.234 c 1.802,0.811 3.178,1.691 4.125,2.638 0.946,0.947 1.611,2.152 1.994,3.617 0.383,1.466 0.575,3.413 0.575,5.849 v 30.83 h 8.045 V 9.059 l 6.964,0 z" />
        </g>
        <g transform="translate(193.7984,590.6398)" id="g72">
          <path id="path74" style="fill:#f11420;fill-opacity:1;fill-rule:nonzero;stroke:none"
            d="m 0,0 c -0.742,0.542 -1.386,1.184 -1.926,1.928 -0.542,0.744 -0.813,1.409 -0.813,1.994 0,0.902 0.564,1.905 1.691,3.009 C 0.078,8.037 1.092,8.61 1.994,8.655 2.896,8.61 3.899,8.037 5.003,6.931 6.107,5.827 6.661,4.824 6.661,3.922 6.661,3.382 6.389,2.729 5.848,1.961 5.308,1.195 4.665,0.542 3.922,0 3.178,-0.54 2.536,-0.811 1.994,-0.811 1.409,-0.811 0.744,-0.54 0,0 m -11.291,0 c -0.744,0.542 -1.385,1.184 -1.928,1.928 -0.54,0.744 -0.81,1.409 -0.81,1.994 0,0.902 0.563,1.905 1.691,3.009 1.125,1.106 2.14,1.679 3.042,1.724 0.901,-0.045 1.904,-0.618 3.008,-1.724 1.104,-1.104 1.656,-2.107 1.656,-3.009 0,-0.54 -0.27,-1.193 -0.81,-1.961 C -5.983,1.195 -6.626,0.542 -7.37,0 c -0.743,-0.54 -1.386,-0.811 -1.926,-0.811 -0.587,0 -1.25,0.271 -1.995,0.811 m -2.806,22.245 h 10.48 V 44.962 H 4.43 V 13.186 h -18.527 z" />
        </g>
        <g transform="translate(225.9483,612.8848)" id="g76">
          <path id="path78" style="fill:#f11420;fill-opacity:1;fill-rule:nonzero;stroke:none"
            d="m 0,0 c 1.083,0 1.837,0.214 2.264,0.643 0.43,0.428 0.644,1.205 0.644,2.333 V 14.469 H -7.979 c -1.351,0 -2.276,-0.214 -2.771,-0.642 -0.496,-0.429 -0.745,-1.252 -0.745,-2.468 V 0 Z m 4.124,22.988 c 2.3,-0.362 4.599,-0.97 6.896,-1.826 V 0 c 0,-4.597 -1.374,-9.454 -4.124,-14.57 -2.75,-5.115 -6.288,-9.477 -10.614,-13.082 l -5.273,6.083 c 2.027,1.67 3.887,3.584 5.576,5.748 1.691,2.163 3.053,4.418 4.091,6.762 h -8.383 c -3.067,0 -5.477,0.528 -7.236,1.588 -1.757,1.059 -3.042,2.783 -3.852,5.172 -0.813,2.388 -1.219,5.656 -1.219,9.803 0,4.102 0.508,7.303 1.522,9.602 1.015,2.299 2.659,3.944 4.937,4.935 2.274,0.991 5.419,1.489 9.431,1.489 3.201,0 5.949,-0.181 8.248,-0.542" />
        </g>
        <g transform="translate(241.3634,612.8848)" id="g80">
          <path id="path82" style="fill:#f11420;fill-opacity:1;fill-rule:nonzero;stroke:none"
            d="m 0,0 h 21.23 c -1.082,4.282 -2.085,7.471 -3.008,9.567 -0.925,2.097 -2.008,3.539 -3.246,4.328 -1.24,0.787 -2.941,1.182 -5.106,1.182 -2.119,0 -4.303,-0.27 -6.558,-0.811 l -2.231,8.858 c 2.614,0.676 5.545,1.014 8.789,1.014 4.282,0 7.539,-0.62 9.771,-1.86 2.231,-1.24 4.157,-3.629 5.78,-7.166 1.623,-3.54 3.448,-9.252 5.477,-17.139 V -9.059 L 0,-9.059 Z" />
        </g>
        <g transform="translate(274.4929,592.6689)" id="g84">
          <path id="path86" style="fill:#f11420;fill-opacity:1;fill-rule:nonzero;stroke:none"
            d="m 0,0 c 1.802,0.811 3.178,1.691 4.124,2.638 0.947,0.946 1.612,2.151 1.995,3.617 0.382,1.465 0.575,3.413 0.575,5.848 v 30.83 h 8.045 V 12.103 C 14.739,7.009 13.848,2.976 12.068,0 10.288,-2.976 7.302,-5.386 3.11,-7.234 Z" />
        </g>
        <g transform="translate(298.0208,646.4205)" id="g88">
          <path id="path90" style="fill:#f11420;fill-opacity:1;fill-rule:nonzero;stroke:none"
            d="m 0,0 h 8.045 v -33.536 h 7.168 v -9.059 H 0 Z" />
        </g>
        <g transform="translate(324.5924,612.8848)" id="g92">
          <path id="path94" style="fill:#f11420;fill-opacity:1;fill-rule:nonzero;stroke:none"
            d="M 0,0 H 11.223 V 7.234 H 2.84 C 1.846,7.234 1.125,7.053 0.676,6.694 0.225,6.332 0,5.747 0,4.935 Z M 34.887,-2.027 V -9.059 H -14.064 V 0 h 7.032 c 0.089,4.101 0.474,7.11 1.149,9.026 0.676,1.915 1.86,3.188 3.551,3.82 1.689,0.631 4.293,0.946 7.807,0.946 3.652,0 6.333,-0.315 8.047,-0.946 1.712,-0.632 2.917,-1.894 3.617,-3.787 C 17.837,7.166 18.231,4.146 18.323,0 h 7.774 l -2.703,10.75 c -0.677,2.57 -1.736,4.609 -3.178,6.119 -1.444,1.51 -3.471,2.614 -6.086,3.314 -2.614,0.698 -6.041,1.047 -10.276,1.047 l 0.473,8.79 c 5.634,0 10.186,-0.496 13.658,-1.487 3.469,-0.993 6.231,-2.649 8.281,-4.97 2.051,-2.323 3.594,-5.534 4.632,-9.635 z" />
        </g>
        <g transform="translate(396.7542,589.423)" id="g96">
          <path id="path98" style="fill:#f11420;fill-opacity:1;fill-rule:nonzero;stroke:none"
            d="m 0,0 c -0.744,0.542 -1.386,1.184 -1.928,1.928 -0.54,0.743 -0.811,1.409 -0.811,1.994 0,0.902 0.564,1.905 1.691,3.009 C 0.078,8.035 1.092,8.61 1.994,8.655 2.896,8.61 3.897,8.035 5.003,6.931 6.107,5.827 6.659,4.824 6.659,3.922 6.659,3.382 6.389,2.729 5.848,1.961 5.306,1.195 4.665,0.542 3.92,0 3.178,-0.54 2.535,-0.81 1.994,-0.81 1.407,-0.81 0.742,-0.54 0,0 m -21.806,17.782 c -1.667,2.253 -2.501,5.95 -2.501,11.089 0,4.597 0.676,8.879 2.029,12.846 l 7.706,-1.285 c -1.127,-3.472 -1.689,-6.581 -1.689,-9.33 0,-3.201 0.339,-5.747 1.013,-7.64 h 34.144 v 22.717 h 8.047 V 14.402 h -40.5 c -3.831,0 -6.581,1.126 -8.249,3.38" />
        </g>
        <g transform="translate(450.0647,603.8254)" id="g100">
          <path id="path102" style="fill:#f11420;fill-opacity:1;fill-rule:nonzero;stroke:none"
            d="m 0,0 h -6.964 c -0.09,-4.777 -1.036,-8.587 -2.84,-11.427 -1.802,-2.839 -4.733,-5.16 -8.789,-6.964 l -3.11,7.234 c 1.802,0.811 3.178,1.691 4.125,2.638 0.946,0.947 1.611,2.152 1.994,3.617 0.383,1.466 0.575,3.413 0.575,5.849 v 30.83 h 8.045 V 9.059 l 6.964,0 z" />
        </g>
        <g transform="translate(485.7636,612.8848)" id="g104">
          <path id="path106" style="fill:#f11420;fill-opacity:1;fill-rule:nonzero;stroke:none"
            d="M 0,0 V -9.059 H -38.337 V 0 h 9.4 c -0.406,2.029 -0.61,4.484 -0.61,7.37 0,4.193 0.418,7.425 1.251,9.703 0.834,2.274 2.241,3.909 4.226,4.902 1.982,0.989 4.801,1.487 8.451,1.487 4.282,0 8.474,-0.609 12.577,-1.825 L -4.327,13.05 c -3.877,0.855 -7.348,1.284 -10.412,1.284 -2.797,0 -4.981,-0.159 -6.559,-0.474 V 3.988 C -21.343,2.546 -20.96,1.522 -20.148,0.914 -19.337,0.305 -18.053,0 -16.294,0 Z" />
        </g>
        <!-- end of square text -->
        <!-- start of square logo -->
        <g transform="translate(408.1359,736.1222)" id="g108">
          <path id="path110" style="fill:#f11420;fill-opacity:1;fill-rule:nonzero;stroke:none"
            d="m 0,0 h -41.995 v 83.991 h -41.996 v 41.995 h 41.996 v 41.996 H 0 Z m -125.986,83.991 h -41.996 v 83.991 h 41.996 v 41.996 h 83.99 v -41.996 h -83.99 z m 0,-83.991 h -41.996 v 41.995 h 41.996 z m 150.91,268.912 h -217.829 c -30.381,0 -55.009,-24.628 -55.009,-55.009 V -3.926 c 0,-30.38 24.628,-55.009 55.009,-55.009 H 24.924 c 30.38,0 55.008,24.629 55.008,55.009 v 217.829 c 0,30.381 -24.628,55.009 -55.008,55.009" />
        </g>
        <!-- end of square logo -->
      </g>
    </g>
  </g>
</svg>